<?xml version="1.0" encoding="UTF-8"?> <svg xmlns="http://www.w3.org/2000/svg" xmlns:xlink="http://www.w3.org/1999/xlink" version="1.1" id="Layer_1" x="0px" y="0px" viewBox="0 0 208 80" style="enable-background:new 0 0 208 80;" xml:space="preserve"> <style type="text/css"> .st0{fill:none;stroke:#FFFFFF;stroke-width:2;stroke-linecap:round;stroke-linejoin:round;} </style> <g id="Layer_2_00000040539048018887888790000007111445360466195373_"> <g id="Layer_1-2_00000121258551189569827750000016109885225111189922_"> <path class="st0" d="M105.5,50.5v-8.8h10.6 M105.5,50.5h10.6 M116.1,41.5v-8.7h10.6v8.7 M105.5,41.5v-8.7h10.6 M116.1,50.4v-8.7 h10.6v8.8 M116.1,59.3v-8.8h10.6v8.8 M105.5,15.8v37.9 M107.6,60l21.4,0.1 M105.7,32.5v-8.8h10.6v8.8 M101.9,52.7 c3.2,0,5.8,2.6,5.8,5.8c0,3.2-2.6,5.8-5.8,5.8s-5.8-2.6-5.8-5.8l0,0C96.1,55.2,98.7,52.7,101.9,52.7L101.9,52.7z M83.6,54.9 c2.6,0,4.6,2,4.6,4.6s-2,4.6-4.6,4.6c-2.6,0-4.6-2-4.6-4.6S81.1,54.9,83.6,54.9L83.6,54.9z M80.8,56V28c0-1.1,0.9-2,2-2h3.9 c8.6,0,10.8,6.9,11.3,9l4.9,17.7 M96,60.1h-7.8 M80.8,38c1.7,3.9,4.6,6.7,7.7,6.7h11.5"></path> </g> </g> </svg> 