<?xml version="1.0" encoding="UTF-8"?> <svg xmlns="http://www.w3.org/2000/svg" xmlns:xlink="http://www.w3.org/1999/xlink" version="1.1" id="Layer_1" x="0px" y="0px" viewBox="0 0 208 80" style="enable-background:new 0 0 208 80;" xml:space="preserve"> <style type="text/css"> .st0{fill:none;stroke:#FFFFFF;stroke-width:2;stroke-linecap:round;stroke-linejoin:round;} </style> <g id="Layer_2_00000009548454640374743520000012490099224489925552_"> <g id="Layer_1-2"> <polygon class="st0" points="110.4,14.3 107.2,18.2 104,18.2 100.8,18.2 97.6,14.3 "></polygon> <path class="st0" d="M107.7,25.3c0,0.9-0.3,1.7-1,2.3c-1.4,1.2-3.5,1.2-4.8,0c-0.6-0.6-1-1.4-1-2.3c0-0.9,0.3-1.7,1-2.3 c1.8-1.3,2.4-1.2,2.4-2.3v-1.3"></path> <path class="st0" d="M81.7,35.3h44.8c1.8,0,2.6,0.4,2.6,1.9v26.5c0,1.5-0.7,1.9-2.6,1.9H81.7c-1.8,0-2.6-0.4-2.6-1.9V37.2 C79.1,35.7,79.7,35.3,81.7,35.3z"></path> <line class="st0" x1="105.5" y1="28.2" x2="123.7" y2="35.1"></line> <line class="st0" x1="102.5" y1="28.2" x2="84.4" y2="35.1"></line> <line class="st0" x1="85.6" y1="61.3" x2="85.6" y2="39.6"></line> <line class="st0" x1="91.7" y1="61.3" x2="91.7" y2="39.6"></line> <line class="st0" x1="97.9" y1="61.3" x2="97.9" y2="39.6"></line> <line class="st0" x1="104" y1="61.3" x2="104" y2="39.6"></line> <line class="st0" x1="110.2" y1="61.3" x2="110.2" y2="39.6"></line> <line class="st0" x1="116.3" y1="61.3" x2="116.3" y2="39.6"></line> <line class="st0" x1="122.4" y1="61.3" x2="122.4" y2="39.6"></line> </g> </g> </svg> 