<?xml version="1.0" encoding="UTF-8"?> <svg xmlns="http://www.w3.org/2000/svg" xmlns:xlink="http://www.w3.org/1999/xlink" version="1.1" id="Layer_1" x="0px" y="0px" viewBox="0 0 208 80" style="enable-background:new 0 0 208 80;" xml:space="preserve"> <style type="text/css"> .st0{fill:none;stroke:#FFFFFF;stroke-width:2;stroke-linecap:round;stroke-linejoin:round;} </style> <g id="Layer_2_00000113310576919411666260000017099238427792081836_"> <g id="Layer_1-2"> <path class="st0" d="M116.1,34.5V20.1c0-1-0.8-1.8-1.8-1.8h-8 M88.9,18.4h-8.2c-0.9,0-1.8,0.8-1.8,1.8v43.3c0,1,0.8,1.8,1.8,1.8 h33.5c1,0,1.8-0.8,1.8-1.8V43.9 M124.5,26.3l4.5,4.6l-23.5,23.5c-4.7,4.7-9.2,0.2-4.5-4.5C101,49.8,124.5,26.3,124.5,26.3z M119.5,46.3l8.8-8.8l-7.5-7.5 M97.2,58l2.5-2.5"></path> <path class="st0" d="M85.6,28.5l2.1,2.8l2.4-3.2 M85.5,35.5l2.1,2.8l2.4-3.2 M85.5,42.5l2.1,2.8l2.4-3.2"></path> <path class="st0" d="M94,29.5h13.8 M94,36.5h13.8"></path> <line class="st0" x1="94" y1="43.5" x2="100.8" y2="43.5"></line> <polygon class="st0" points="89.4,21.4 105.7,21.4 105.7,14.9 89.4,14.9 "></polygon> </g> </g> </svg> 