<?xml version="1.0" encoding="UTF-8"?> <svg xmlns="http://www.w3.org/2000/svg" xmlns:xlink="http://www.w3.org/1999/xlink" version="1.1" id="Layer_1" x="0px" y="0px" viewBox="0 0 208 80" style="enable-background:new 0 0 208 80;" xml:space="preserve"> <style type="text/css"> .st0{fill:none;stroke:#FFFFFF;stroke-width:2;stroke-linecap:round;stroke-linejoin:round;} </style> <g id="Layer_2_00000150788927614780226760000007405708458673443503_"> <g id="Layer_1-2_00000070111256261453027650000003295980458618068894_"> <path class="st0" d="M104,31.7c-5.5-1.8-7-5.3-7-9.5c0-3.8,3.1-7,7-7c3.8,0,7,3.1,7,7C111,26.4,109.6,30,104,31.7z M85.4,58.7 l-4.7-4.1c-1.6-1.4-2.2-4.9-1.1-6.7c1.7-2.7,8.7-14.7,10.3-15.2c1.8-0.4,3.7-0.5,5.6-0.4h17c1.9-0.1,3.7,0.1,5.6,0.4 c1.7,0.5,8.6,12.5,10.3,15.2c1.2,1.8,0.5,5.3-1.2,6.7l-4.6,3.9"></path> <path class="st0" d="M87.1,53.1h2.6c1.3,0,2.5,1.1,2.5,2.5v3.2c0,1.3-1.1,2.5-2.5,2.5h-2.6c-0.7,0-1.4-0.6-1.4-1.3v-5.2 C85.7,53.7,86.3,53.1,87.1,53.1L87.1,53.1z M120.9,53.1h-2.6c-1.3,0-2.5,1.1-2.5,2.5v3.2c0,1.3,1.1,2.5,2.4,2.5l0,0h2.6 c0.7,0,1.4-0.7,1.4-1.4v-5.2C122.3,53.7,121.7,53.1,120.9,53.1L120.9,53.1z M97.5,21.3h18.2"></path> <polyline class="st0" points="88.8,52.5 88.8,38.5 119.3,38.5 119.3,52.1 "></polyline> <polyline class="st0" points="119.3,62 119.3,64.8 88.8,64.8 88.8,61.7 "></polyline> <polyline class="st0" points="99.8,38.8 99.8,44.3 108.2,44.3 108.2,38.8 "></polyline> </g> </g> </svg> 