<?xml version="1.0" encoding="UTF-8"?> <svg xmlns="http://www.w3.org/2000/svg" xmlns:xlink="http://www.w3.org/1999/xlink" version="1.1" id="Layer_1" x="0px" y="0px" viewBox="0 0 208 80" style="enable-background:new 0 0 208 80;" xml:space="preserve"> <style type="text/css"> .st0{fill:none;stroke:#FFFFFF;stroke-width:2;stroke-linecap:round;stroke-linejoin:round;} </style> <g id="Layer_2_00000108290978307489125280000003524108078696414866_"> <g id="Layer_1-2_00000116232886525162233690000006383076213386744986_"> <path class="st0" d="M111.3,34.5l7.9-0.1c1.6,0.2,3,1,4,2.2l4,5.5c1.2,1.7,1.9,3.8,1.9,5.9v6.3c0,1.2-1,2.2-2.2,2.2h-4.7 M112.5,56.6H95.3 M84.5,56.6h-3.4c-1.2,0-2.2-1-2.2-2.2v-12 M117.3,52.8c2.6,0,4.8,2.2,4.8,4.8c0,2.6-2.2,4.8-4.8,4.8 s-4.8-2.2-4.8-4.8l0,0C112.5,55,114.7,52.8,117.3,52.8L117.3,52.8z M89.3,52.8c2.6,0,4.8,2.2,4.8,4.8c0,2.6-2.2,4.8-4.8,4.8 s-4.8-2.2-4.8-4.8l0,0C84.5,55,86.7,52.8,89.3,52.8z M81.2,17.6h28c1.2,0,2.2,1,2.2,2.2v24.9c0,1.2-1,2.2-2.2,2.2h-28 c-1.2,0-2.2-1-2.2-2.2V19.7C79,18.5,79.9,17.6,81.2,17.6z M128.8,46.5h-9.9c-1.2,0-2.2-1-2.2-2.2v-9.7 M87.4,31.6l6.2,9.5 l10.8-16.9"></path> </g> </g> </svg> 