<?xml version="1.0" encoding="UTF-8"?> <svg xmlns="http://www.w3.org/2000/svg" xmlns:xlink="http://www.w3.org/1999/xlink" version="1.1" id="Layer_1" x="0px" y="0px" viewBox="0 0 208 80" style="enable-background:new 0 0 208 80;" xml:space="preserve"> <style type="text/css"> .st0{fill:none;stroke:#FFFFFF;stroke-width:2;stroke-linecap:round;stroke-linejoin:round;} </style> <g id="Layer_2_00000005988008923506839090000001981236831999491242_"> <g id="Layer_1-2"> <path class="st0" d="M85.2,54.7c0.1-2.6-1.3-6.1-6.2-6.1v-6.6l50-0.3l-7.8,14.1"></path> <path class="st0" d="M128.3,58.3c-2.7-0.1-5-1.7-6.1-4.1c-1.4,3.4-5.3,5-8.7,3.6c-1.6-0.7-2.8-1.9-3.6-3.6c-1.1,2.4-3.5,4-6.1,4.1 c-2.7-0.1-5-1.7-6.1-4.1c-1.1,2.4-3.5,4-6.1,4.1c-2.7-0.1-5-1.7-6.1-4.1c-1.1,2.4-3.5,4-6.1,4.1"></path> <polyline class="st0" points="112,33 112,24.1 122.7,24.1 122.7,33 "></polyline> <polyline class="st0" points="101.4,33 101.4,24.1 112.1,24.1 112.1,33 "></polyline> <polyline class="st0" points="112,41.6 112,32.8 122.7,32.8 122.7,41.6 "></polyline> <polyline class="st0" points="101.4,41.6 101.4,32.8 112.1,32.8 112.1,41.6 "></polyline> <polyline class="st0" points="83.1,40.8 86.1,29.2 92,29.2 92,40.8 "></polyline> <line class="st0" x1="92" y1="15" x2="92" y2="29.5"></line> <path class="st0" d="M128.3,64.9c-2.7-0.1-5-1.7-6.1-4.1c-1.4,3.4-5.3,5-8.7,3.6c-1.6-0.7-2.8-1.9-3.6-3.6c-1.1,2.4-3.5,4-6.1,4.1 c-2.7-0.1-5-1.7-6.1-4.1c-1.1,2.4-3.5,4-6.1,4.1c-2.7-0.1-5-1.7-6.1-4.1c-1.1,2.4-3.5,4-6.1,4.1"></path> </g> </g> </svg> 