<?xml version="1.0" encoding="UTF-8"?> <svg xmlns="http://www.w3.org/2000/svg" xmlns:xlink="http://www.w3.org/1999/xlink" version="1.1" id="Layer_1" x="0px" y="0px" viewBox="0 0 208 80" style="enable-background:new 0 0 208 80;" xml:space="preserve"> <style type="text/css"> .st0{fill:none;stroke:#FFFFFF;stroke-width:2;stroke-linecap:round;stroke-linejoin:round;} </style> <g> <path class="st0" d="M90.4,49.2h27.3c1.1,0,1.6,0.2,1.6,1.2v16.1c0,0.9-0.4,1.2-1.6,1.2H90.4c-1.1,0-1.6-0.2-1.6-1.2V50.4 C88.8,49.5,89.1,49.2,90.4,49.2z"></path> <g> <line class="st0" x1="93.3" y1="64.3" x2="93.3" y2="52.6"></line> <line class="st0" x1="97.6" y1="64.3" x2="97.6" y2="52.6"></line> <line class="st0" x1="101.9" y1="64.3" x2="101.9" y2="52.6"></line> <line class="st0" x1="106.1" y1="64.3" x2="106.1" y2="52.6"></line> <line class="st0" x1="110.4" y1="64.3" x2="110.4" y2="52.6"></line> <line class="st0" x1="114.7" y1="64.3" x2="114.7" y2="52.6"></line> </g> <path class="st0" d="M90.4,30.8h27.3c1.1,0,1.6,0.2,1.6,1.2v16.1c0,0.9-0.4,1.2-1.6,1.2H90.4c-1.1,0-1.6-0.2-1.6-1.2V31.9 C88.8,31,89.1,30.8,90.4,30.8z"></path> <g> <line class="st0" x1="93.3" y1="45.8" x2="93.3" y2="34.2"></line> <line class="st0" x1="97.6" y1="45.8" x2="97.6" y2="34.2"></line> <line class="st0" x1="101.9" y1="45.8" x2="101.9" y2="34.2"></line> <line class="st0" x1="106.1" y1="45.8" x2="106.1" y2="34.2"></line> <line class="st0" x1="110.4" y1="45.8" x2="110.4" y2="34.2"></line> <line class="st0" x1="114.7" y1="45.8" x2="114.7" y2="34.2"></line> </g> <path class="st0" d="M90.4,12.3h27.3c1.1,0,1.6,0.2,1.6,1.2v16.1c0,0.9-0.4,1.2-1.6,1.2H90.4c-1.1,0-1.6-0.2-1.6-1.2V13.5 C88.8,12.6,89.1,12.3,90.4,12.3z"></path> <g> <line class="st0" x1="93.3" y1="27.4" x2="93.3" y2="15.7"></line> <line class="st0" x1="97.6" y1="27.4" x2="97.6" y2="15.7"></line> <line class="st0" x1="101.9" y1="27.4" x2="101.9" y2="15.7"></line> <line class="st0" x1="106.1" y1="27.4" x2="106.1" y2="15.7"></line> <line class="st0" x1="110.4" y1="27.4" x2="110.4" y2="15.7"></line> <line class="st0" x1="114.7" y1="27.4" x2="114.7" y2="15.7"></line> </g> </g> </svg> 