<?xml version="1.0" encoding="UTF-8"?> <svg xmlns="http://www.w3.org/2000/svg" xmlns:xlink="http://www.w3.org/1999/xlink" version="1.1" id="Layer_1" x="0px" y="0px" viewBox="0 0 280 70" style="enable-background:new 0 0 280 70;" xml:space="preserve"> <style type="text/css"> .st0{fill:none;stroke:#FFFFFF;stroke-width:2;stroke-linecap:round;stroke-linejoin:round;} .st1{clip-path:url(#SVGID_00000085936667103828864250000006304283798993150123_);fill:#FFFFFF;} </style> <g> <defs> <rect id="SVGID_1_" y="10.6" width="280" height="48.7"></rect> </defs> <clipPath id="SVGID_00000045586085283834526950000001526884285261566139_"> <use xlink:href="#SVGID_1_" style="overflow:visible;"></use> </clipPath> <path style="clip-path:url(#SVGID_00000045586085283834526950000001526884285261566139_);fill:#FFFFFF;" d="M0,58.2l10-47.6h9.8 l-10,47.6H0z M26.2,23.7h8.9l-0.9,4.5c2.2-2,4.3-3.3,6.2-4.2c1.9-0.8,4-1.2,6.1-1.2c2.8,0,5.1,0.8,6.7,2.5c1.6,1.7,2.5,3.8,2.5,6.6 c0,1.2-0.4,3.5-1.2,6.8l-4.2,19.5H41l4.2-19.5c0.6-2.9,0.9-4.7,1-5.2c0-1.2-0.4-2.2-1.1-2.9c-0.7-0.7-1.7-1.1-3-1.1 c-1.4,0-2.9,0.6-4.6,1.7c-1.7,1.2-3,2.7-4,4.6c-0.7,1.3-1.5,4.1-2.4,8.3l-2.9,14.2h-9.3L26.2,23.7z M91.3,58.2h-8.8l0.8-3.7 c-1.7,1.6-3.3,2.8-5,3.5c-1.6,0.7-3.5,1.1-5.5,1.1c-3.6,0-6.5-1.2-8.7-3.7c-2.2-2.4-3.3-6.1-3.3-10.8c0-5.5,1.6-10.5,4.7-15 c3.2-4.5,7.3-6.7,12.5-6.7c4.7,0,8.2,1.9,10.6,5.6l3.9-17.8h9.3L91.3,58.2z M69.7,44.2c0,2.5,0.6,4.4,1.9,5.8 c1.3,1.4,2.8,2.1,4.7,2.1c1.7,0,3.3-0.6,4.8-1.7c1.5-1.2,2.7-2.9,3.5-5.3c0.9-2.4,1.3-4.7,1.3-6.9c0-2.5-0.7-4.5-2-6.1 c-1.4-1.5-2.9-2.3-4.7-2.3c-2.8,0-5,1.5-6.8,4.6C70.6,37.4,69.7,40.7,69.7,44.2 M113.2,33.4l-9.1-0.8c1-3.1,2.9-5.4,5.5-7.2 c2.6-1.7,6-2.6,10.3-2.6c4.4,0,7.7,0.9,9.9,2.7c2.1,1.8,3.2,4,3.2,6.6c0,1-0.1,2.1-0.3,3.3c-0.2,1.2-0.8,4.3-1.9,9.2 c-0.9,4.1-1.4,7-1.4,8.7c0,1.5,0.3,3.1,0.8,4.9H121c-0.4-1.3-0.6-2.6-0.7-3.9c-1.4,1.5-2.9,2.7-4.7,3.5c-1.8,0.8-3.6,1.2-5.4,1.2 c-2.9,0-5.2-0.9-7.1-2.8c-1.9-1.9-2.8-4.3-2.8-7.3c0-3.3,1-6,3.1-7.9c2.1-2,5.7-3.2,11-3.6c4.4-0.4,7.4-0.8,8.9-1.3 c0.4-1.3,0.6-2.3,0.6-3.1c0-1-0.4-1.8-1.2-2.5c-0.8-0.7-2-1-3.6-1c-1.7,0-3,0.3-3.9,1C114.2,31.2,113.6,32.1,113.2,33.4 M122.1,42.1c-0.6,0.2-1.3,0.3-2.2,0.4c-4.7,0.6-7.7,1.4-9.2,2.5c-1,0.8-1.5,1.9-1.5,3.2c0,1.1,0.4,2,1.2,2.8 c0.8,0.8,1.8,1.1,3.1,1.1c1.4,0,2.7-0.3,4-1c1.3-0.7,2.2-1.6,2.8-2.7c0.6-1.1,1.2-2.8,1.6-5.1L122.1,42.1z M146.5,58.2h-9.3 l10-47.6h9.3l-3.5,17c2.1-1.7,4.1-2.9,5.9-3.6c1.8-0.7,3.8-1.1,5.9-1.1c2.8,0,5.1,0.8,6.7,2.4c1.6,1.6,2.5,3.8,2.5,6.4 c-0.1,1.4-0.4,3.5-1,6.4l-4.3,20.1h-9.3l4.4-20.5c0.5-2.2,0.7-3.7,0.8-4.3c0-1.2-0.4-2.1-1.1-2.8c-0.7-0.7-1.7-1.1-3-1.1 c-1.6,0-3.1,0.5-4.6,1.6c-1.9,1.4-3.3,3.2-4.3,5.3c-0.5,1.2-1.3,3.9-2.1,8.1L146.5,58.2z"></path> <path style="clip-path:url(#SVGID_00000045586085283834526950000001526884285261566139_);fill:#FFFFFF;" d="M216.9,43.7V46 c0,1-0.2,1.6-0.7,2c-0.3,0.3-1.1,0.6-3.1,0.6H207v-7.5h6.1c2,0,2.8,0.3,3.1,0.5C216.7,42,216.9,42.7,216.9,43.7 M213.6,38.4h-9.4 v20.7h2.8v-7.8h6.8c1.2,0,2.1,0.2,2.5,0.7c0.4,0.5,0.6,1.4,0.6,2.7v4.4h2.9V54c0-1.4-0.2-2.3-0.6-3c-0.3-0.4-0.7-0.8-1.3-1.1 c0.5-0.2,0.9-0.5,1.2-1c0.5-0.6,0.7-1.5,0.7-2.7v-3c0-1.8-0.5-3.1-1.4-3.8C217.6,38.7,216,38.4,213.6,38.4"></path> <path style="clip-path:url(#SVGID_00000045586085283834526950000001526884285261566139_);fill:#FFFFFF;" d="M198.9,39.4 c-1.2-0.9-3.1-1.3-5.7-1.3h-2.6c-2.8,0-4.7,0.5-5.9,1.6c-1.1,1.1-1.7,3-1.7,5.6v6.8c0,2.7,0.6,4.5,1.7,5.6c1.1,1.1,3.1,1.6,5.9,1.6 h2.6c2.8,0,4.8-0.5,5.9-1.6c1.1-1.1,1.7-3,1.7-5.6v-3.7h-8.5v2.6h5.6v0.9c0,1.3-0.1,2.1-0.2,2.6c-0.1,0.5-0.4,0.8-0.7,1.1 c-0.4,0.3-0.8,0.5-1.3,0.6c-0.5,0.1-1.4,0.2-2.6,0.2h-1.8c-1.4,0-2.4-0.1-2.9-0.2c-0.5-0.1-1-0.4-1.4-0.7c-0.3-0.3-0.6-0.7-0.7-1.2 c-0.1-0.5-0.2-1.5-0.2-2.9v-5.7c0-1.4,0.1-2.4,0.2-2.9c0.1-0.5,0.4-0.9,0.7-1.2c0.4-0.3,0.9-0.6,1.4-0.7c0.6-0.1,1.6-0.2,2.9-0.2 h1.8c1.9,0,3.2,0.3,3.8,0.8c0.6,0.5,0.9,1.4,0.9,2.7v0.5h2.9v-1.2C200.8,41.8,200.1,40.3,198.9,39.4"></path> <path style="clip-path:url(#SVGID_00000045586085283834526950000001526884285261566139_);fill:#FFFFFF;" d="M267.8,41.1h5.9 c1.8,0,2.5,0.3,2.8,0.5c0.4,0.3,0.6,0.9,0.6,1.8v3c0,0.9-0.2,1.5-0.6,1.8c-0.3,0.2-1,0.5-2.8,0.5h-5.9V41.1z M278.6,39.4 c-0.9-0.7-2.5-1.1-4.9-1.1H265v20.7h2.8v-7.8h6c2.4,0,4-0.4,4.9-1.1c0.9-0.7,1.4-2,1.4-3.9v-3C280,41.5,279.5,40.2,278.6,39.4"></path> <path style="clip-path:url(#SVGID_00000045586085283834526950000001526884285261566139_);fill:#FFFFFF;" d="M225.9,51.6v-5.7 c0-1.4,0.1-2.4,0.2-2.9c0.1-0.5,0.4-0.9,0.7-1.2c0.4-0.3,0.9-0.6,1.4-0.7c0.6-0.1,1.6-0.2,2.9-0.2h1.2c1.4,0,2.4,0.1,2.9,0.2 c0.5,0.1,1,0.4,1.4,0.7c0.3,0.3,0.6,0.7,0.7,1.2c0.2,0.5,0.2,1.5,0.2,2.9v5.7c0,1.4-0.1,2.4-0.2,2.9c-0.1,0.5-0.4,0.9-0.7,1.2 c-0.4,0.3-0.9,0.6-1.4,0.7c-0.6,0.1-1.6,0.2-2.9,0.2h-1.2c-1.4,0-2.4-0.1-2.9-0.2c-0.5-0.1-1-0.4-1.4-0.7c-0.4-0.3-0.6-0.7-0.7-1.2 C225.9,54,225.9,53,225.9,51.6 M233.1,38.1h-2.5c-2.8,0-4.8,0.5-5.9,1.6c-1.1,1.1-1.7,2.9-1.7,5.6v6.8c0,2.7,0.6,4.5,1.7,5.6 c1.1,1.1,3.1,1.6,5.9,1.6h2.5c2.8,0,4.7-0.5,5.9-1.6c1.1-1.1,1.7-3,1.7-5.6v-6.8c0-2.7-0.6-4.6-1.7-5.6 C237.8,38.6,235.9,38.1,233.1,38.1"></path> <path style="clip-path:url(#SVGID_00000045586085283834526950000001526884285261566139_);fill:#FFFFFF;" d="M258,51.9 c0,1.3-0.1,2.2-0.2,2.7c-0.1,0.5-0.3,0.8-0.6,1.1c-0.3,0.3-0.7,0.5-1.2,0.6c-0.5,0.1-1.3,0.2-2.5,0.2h-2.1c-1.2,0-2-0.1-2.5-0.2 c-0.5-0.1-0.8-0.3-1.2-0.6c-0.3-0.3-0.5-0.6-0.6-1.1c-0.1-0.5-0.2-1.4-0.2-2.6V38.4H244v13.8c0,2.6,0.5,4.5,1.6,5.6 c1.1,1.1,2.9,1.6,5.6,1.6h2.4c2.6,0,4.5-0.5,5.6-1.6c1.1-1.1,1.6-2.9,1.6-5.6V38.4H258V51.9z"></path> </g> </svg> 