<?xml version="1.0" encoding="UTF-8"?> <svg xmlns="http://www.w3.org/2000/svg" id="Layer_2" data-name="Layer 2" viewBox="0 0 256 256"><defs><style> .cls-1 { fill: none; stroke: #fff; stroke-linecap: round; stroke-linejoin: round; stroke-width: 8px; } </style></defs><g id="Capa_1" data-name="Capa 1"><g id="mission"><line class="cls-1" x1="88" y1="88" x2="88" y2="4"></line><polyline class="cls-1" points="4 172.34 88 88 252 252"></polyline><polyline class="cls-1" points="154.16 154.16 188.49 116.54 252 180"></polyline><path class="cls-1" d="M88,116l-12,12h-.01s20.01,20,20.01,20c8.21,7.91,12.13,10.25,12,16-.14,6.63-3.87,8.88-12,12l-44,16c-12,4-20,12.95-20,24s8.95,20,20,20h108"></path><polyline class="cls-1" points="88 44 148 44 132 24 148 4 112 4"></polyline></g></g></svg> 