<?xml version="1.0" encoding="UTF-8"?> <svg xmlns="http://www.w3.org/2000/svg" id="Layer_2" data-name="Layer 2" viewBox="0 0 256 256"><defs><style> .cls-1 { fill: none; stroke: #fff; stroke-linecap: round; stroke-linejoin: round; stroke-width: 8px; } </style></defs><g id="Capa_1" data-name="Capa 1"><g id="mission"><path class="cls-1" d="M229.85,91.99c3.98,11.26,6.15,23.38,6.15,36.01,0,59.65-48.35,108-108,108S20,187.65,20,128,68.35,20,128,20c29.63,0,56.48,11.94,75.99,31.26"></path><path class="cls-1" d="M175.65,85.28c-11.72-13.06-28.73-21.28-47.65-21.28-35.34,0-64,28.65-64,64s28.66,64,64,64,64-28.65,64-64"></path><polyline class="cls-1" points="88 128 128 168 244 44"></polyline><g><line class="cls-1" x1="128" y1="4" x2="128" y2="36"></line><line class="cls-1" x1="128" y1="220" x2="128" y2="252"></line><line class="cls-1" x1="4" y1="128" x2="36" y2="128"></line><line class="cls-1" x1="220" y1="128" x2="252" y2="128"></line></g></g></g></svg> 