<?xml version="1.0" encoding="UTF-8"?> <svg xmlns="http://www.w3.org/2000/svg" xmlns:xlink="http://www.w3.org/1999/xlink" version="1.1" x="0px" y="0px" viewBox="0 0 800 600" style="enable-background:new 0 0 800 600;" xml:space="preserve"> <style type="text/css"> .st0{display:none;} .st1{display:inline;fill:#4C4C4C;} .st2{fill:none;stroke:#231F20;stroke-width:2;stroke-linecap:round;stroke-linejoin:round;stroke-miterlimit:10;} .st3{fill:none;stroke:#231F20;stroke-width:2;stroke-linecap:round;stroke-linejoin:round;} .st4{fill:#231F20;} .st5{fill:none;stroke:#00ADF0;stroke-width:2;stroke-linecap:round;stroke-linejoin:round;stroke-miterlimit:10;} </style> <g id="Layer_2" class="st0"> </g> <g id="Layer_1"> <g> <path class="st4" d="M73.7,277.3h1.1v4.3c-0.5,0.5-1.1,0.8-1.9,1.1c-0.7,0.2-1.5,0.4-2.3,0.4c-1.1,0-2.1-0.2-3-0.7s-1.6-1.2-2.1-2 c-0.5-0.9-0.8-1.8-0.8-2.9s0.3-2.1,0.8-2.9c0.5-0.9,1.2-1.5,2.1-2s1.9-0.7,3-0.7c0.9,0,1.6,0.1,2.4,0.4c0.7,0.3,1.3,0.7,1.8,1.2 l-0.7,0.8c-0.9-0.9-2-1.3-3.4-1.3c-0.9,0-1.7,0.2-2.5,0.6c-0.7,0.4-1.3,1-1.7,1.7s-0.6,1.5-0.6,2.4s0.2,1.7,0.6,2.4s1,1.3,1.7,1.7 c0.7,0.4,1.5,0.6,2.4,0.6c1.2,0,2.1-0.3,2.9-0.9V277.3z"></path> <path class="st4" d="M85.3,279.1h-7c0.1,0.9,0.4,1.6,1,2.1c0.6,0.5,1.4,0.8,2.3,0.8c0.5,0,1-0.1,1.4-0.3c0.4-0.2,0.8-0.5,1.1-0.8 l0.6,0.7c-0.4,0.4-0.8,0.8-1.4,1s-1.2,0.4-1.8,0.4c-0.9,0-1.6-0.2-2.3-0.6s-1.2-0.9-1.6-1.5c-0.4-0.7-0.6-1.4-0.6-2.2 s0.2-1.6,0.5-2.2c0.4-0.7,0.8-1.2,1.5-1.5s1.3-0.5,2.1-0.5c0.8,0,1.5,0.2,2.1,0.5s1.1,0.9,1.5,1.5s0.5,1.4,0.5,2.2L85.3,279.1z M79.2,276.2c-0.5,0.5-0.9,1.2-0.9,2h6c-0.1-0.8-0.4-1.5-0.9-2s-1.2-0.8-2.1-0.8C80.4,275.4,79.7,275.7,79.2,276.2z"></path> <path class="st4" d="M94.4,275.4c0.6,0.6,0.9,1.5,0.9,2.7v4.9h-1.1v-4.8c0-0.9-0.2-1.5-0.7-2c-0.4-0.5-1.1-0.7-1.9-0.7 c-0.9,0-1.6,0.3-2.2,0.8c-0.5,0.5-0.8,1.3-0.8,2.2v4.4h-1.1v-8.4h1.1v1.6c0.3-0.5,0.7-0.9,1.3-1.2s1.2-0.4,1.9-0.4 C93,274.5,93.8,274.8,94.4,275.4z"></path> <path class="st4" d="M105.8,279.1h-7c0.1,0.9,0.4,1.6,1,2.1c0.6,0.5,1.4,0.8,2.3,0.8c0.5,0,1-0.1,1.4-0.3c0.4-0.2,0.8-0.5,1.1-0.8 l0.6,0.7c-0.4,0.4-0.8,0.8-1.4,1s-1.2,0.4-1.8,0.4c-0.9,0-1.6-0.2-2.3-0.6s-1.2-0.9-1.6-1.5c-0.4-0.7-0.6-1.4-0.6-2.2 s0.2-1.6,0.5-2.2c0.4-0.7,0.8-1.2,1.5-1.5s1.3-0.5,2.1-0.5c0.8,0,1.5,0.2,2.1,0.5s1.1,0.9,1.5,1.5s0.5,1.4,0.5,2.2L105.8,279.1z M99.7,276.2c-0.5,0.5-0.9,1.2-0.9,2h6c-0.1-0.8-0.4-1.5-0.9-2s-1.2-0.8-2.1-0.8C100.9,275.4,100.3,275.7,99.7,276.2z"></path> <path class="st4" d="M110.4,274.9c0.5-0.3,1.2-0.4,2-0.4v1.1l-0.3,0c-0.9,0-1.6,0.3-2.1,0.8c-0.5,0.5-0.8,1.3-0.8,2.3v4.3h-1.1 v-8.4h1.1v1.6C109.5,275.6,109.9,275.2,110.4,274.9z"></path> <path class="st4" d="M119.9,275.3c0.6,0.5,0.9,1.4,0.9,2.4v5.2h-1.1v-1.3c-0.3,0.4-0.6,0.8-1.1,1c-0.5,0.2-1.1,0.4-1.8,0.4 c-0.9,0-1.7-0.2-2.2-0.7s-0.8-1-0.8-1.8c0-0.7,0.3-1.3,0.8-1.7c0.5-0.4,1.3-0.7,2.5-0.7h2.7v-0.5c0-0.7-0.2-1.3-0.6-1.7 c-0.4-0.4-1-0.6-1.8-0.6c-0.5,0-1,0.1-1.5,0.3s-0.9,0.4-1.3,0.7l-0.5-0.8c0.4-0.4,0.9-0.6,1.5-0.8c0.6-0.2,1.2-0.3,1.9-0.3 C118.5,274.5,119.3,274.7,119.9,275.3z M118.6,281.7c0.5-0.3,0.8-0.7,1-1.3V279H117c-1.4,0-2.2,0.5-2.2,1.5c0,0.5,0.2,0.9,0.6,1.2 c0.4,0.3,0.9,0.4,1.6,0.4C117.6,282.1,118.2,282,118.6,281.7z"></path> <path class="st4" d="M123.9,271.1h1.1v11.9h-1.1V271.1z"></path> <path class="st4" d="M148,271.7l-3.8,11.2H143l-3.3-9.6l-3.3,9.6h-1.2l-3.8-11.2h1.2l3.2,9.6l3.3-9.6h1.1l3.3,9.7l3.3-9.7H148z"></path> <path class="st4" d="M154.7,275.3c0.6,0.5,0.9,1.4,0.9,2.4v5.2h-1.1v-1.3c-0.3,0.4-0.6,0.8-1.1,1c-0.5,0.2-1.1,0.4-1.8,0.4 c-0.9,0-1.7-0.2-2.2-0.7s-0.8-1-0.8-1.8c0-0.7,0.3-1.3,0.8-1.7c0.5-0.4,1.3-0.7,2.5-0.7h2.7v-0.5c0-0.7-0.2-1.3-0.6-1.7 c-0.4-0.4-1-0.6-1.8-0.6c-0.5,0-1,0.1-1.5,0.3s-0.9,0.4-1.3,0.7l-0.5-0.8c0.4-0.4,0.9-0.6,1.5-0.8c0.6-0.2,1.2-0.3,1.9-0.3 C153.3,274.5,154.1,274.7,154.7,275.3z M153.5,281.7c0.5-0.3,0.8-0.7,1-1.3V279h-2.6c-1.4,0-2.2,0.5-2.2,1.5 c0,0.5,0.2,0.9,0.6,1.2c0.4,0.3,0.9,0.4,1.6,0.4C152.4,282.1,153,282,153.5,281.7z"></path> <path class="st4" d="M161,274.9c0.5-0.3,1.2-0.4,2-0.4v1.1l-0.3,0c-0.9,0-1.6,0.3-2.1,0.8c-0.5,0.5-0.8,1.3-0.8,2.3v4.3h-1.1v-8.4 h1.1v1.6C160.1,275.6,160.5,275.2,161,274.9z"></path> <path class="st4" d="M172.2,279.1h-7c0.1,0.9,0.4,1.6,1,2.1c0.6,0.5,1.4,0.8,2.3,0.8c0.5,0,1-0.1,1.4-0.3c0.4-0.2,0.8-0.5,1.1-0.8 l0.6,0.7c-0.4,0.4-0.8,0.8-1.4,1s-1.2,0.4-1.8,0.4c-0.9,0-1.6-0.2-2.3-0.6s-1.2-0.9-1.6-1.5c-0.4-0.7-0.6-1.4-0.6-2.2 s0.2-1.6,0.5-2.2c0.4-0.7,0.8-1.2,1.5-1.5s1.3-0.5,2.1-0.5c0.8,0,1.5,0.2,2.1,0.5s1.1,0.9,1.5,1.5s0.5,1.4,0.5,2.2L172.2,279.1z M166.1,276.2c-0.5,0.5-0.9,1.2-0.9,2h6c-0.1-0.8-0.4-1.5-0.9-2s-1.2-0.8-2.1-0.8C167.4,275.4,166.7,275.7,166.1,276.2z"></path> <path class="st4" d="M181.4,275.4c0.6,0.6,0.9,1.5,0.9,2.7v4.9h-1.1v-4.8c0-0.9-0.2-1.5-0.7-2c-0.4-0.5-1.1-0.7-1.9-0.7 c-0.9,0-1.6,0.3-2.2,0.8c-0.5,0.5-0.8,1.3-0.8,2.2v4.4h-1.1v-11.9h1.1v4.9c0.3-0.5,0.7-0.9,1.3-1.1s1.2-0.4,1.9-0.4 C179.9,274.5,180.8,274.8,181.4,275.4z"></path> <path class="st4" d="M186.7,282.5c-0.7-0.4-1.2-0.9-1.5-1.5c-0.4-0.7-0.6-1.4-0.6-2.2s0.2-1.6,0.6-2.2c0.4-0.7,0.9-1.2,1.5-1.5 c0.7-0.4,1.4-0.5,2.2-0.5s1.5,0.2,2.2,0.5c0.7,0.4,1.2,0.9,1.5,1.5c0.4,0.7,0.6,1.4,0.6,2.2s-0.2,1.6-0.6,2.2 c-0.4,0.7-0.9,1.2-1.5,1.5c-0.7,0.4-1.4,0.6-2.2,0.6S187.3,282.8,186.7,282.5z M190.5,281.6c0.5-0.3,0.8-0.7,1.1-1.2 c0.3-0.5,0.4-1.1,0.4-1.7c0-0.6-0.1-1.2-0.4-1.7c-0.3-0.5-0.6-0.9-1.1-1.2c-0.5-0.3-1-0.4-1.6-0.4c-0.6,0-1.1,0.1-1.6,0.4 c-0.5,0.3-0.8,0.7-1.1,1.2c-0.3,0.5-0.4,1.1-0.4,1.7c0,0.6,0.1,1.2,0.4,1.7c0.3,0.5,0.6,0.9,1.1,1.2c0.5,0.3,1,0.4,1.6,0.4 C189.5,282,190,281.9,190.5,281.6z"></path> <path class="st4" d="M203.1,274.5v8.4H202v-1.5c-0.3,0.5-0.7,0.9-1.2,1.2c-0.5,0.3-1.1,0.4-1.8,0.4c-1.1,0-2-0.3-2.6-0.9 c-0.6-0.6-1-1.5-1-2.7v-4.9h1.1v4.8c0,0.9,0.2,1.6,0.7,2c0.4,0.5,1.1,0.7,1.9,0.7c0.9,0,1.6-0.3,2.1-0.8c0.5-0.5,0.8-1.3,0.8-2.2 v-4.4H203.1z"></path> <path class="st4" d="M206.5,282.7c-0.6-0.2-1.1-0.4-1.5-0.7l0.5-0.9c0.4,0.3,0.8,0.5,1.3,0.7s1.1,0.3,1.7,0.3 c0.8,0,1.3-0.1,1.7-0.4c0.4-0.2,0.6-0.6,0.6-1c0-0.3-0.1-0.6-0.3-0.7s-0.5-0.3-0.8-0.4c-0.3-0.1-0.7-0.2-1.2-0.3 c-0.7-0.1-1.2-0.3-1.6-0.4c-0.4-0.1-0.8-0.4-1.1-0.7c-0.3-0.3-0.4-0.8-0.4-1.3c0-0.7,0.3-1.3,0.9-1.7c0.6-0.4,1.4-0.7,2.4-0.7 c0.5,0,1.1,0.1,1.6,0.2c0.5,0.1,1,0.3,1.3,0.6l-0.5,0.9c-0.7-0.5-1.5-0.7-2.5-0.7c-0.7,0-1.3,0.1-1.6,0.4c-0.4,0.3-0.6,0.6-0.6,1 c0,0.3,0.1,0.6,0.3,0.8s0.5,0.3,0.8,0.4s0.7,0.2,1.3,0.3c0.7,0.1,1.2,0.3,1.6,0.4s0.8,0.3,1,0.7s0.4,0.7,0.4,1.3 c0,0.7-0.3,1.3-0.9,1.8c-0.6,0.4-1.5,0.6-2.6,0.6C207.8,283,207.2,282.9,206.5,282.7z"></path> <path class="st4" d="M221.4,279.1h-7c0.1,0.9,0.4,1.6,1,2.1c0.6,0.5,1.4,0.8,2.3,0.8c0.5,0,1-0.1,1.4-0.3c0.4-0.2,0.8-0.5,1.1-0.8 l0.6,0.7c-0.4,0.4-0.8,0.8-1.4,1s-1.2,0.4-1.8,0.4c-0.9,0-1.6-0.2-2.3-0.6s-1.2-0.9-1.6-1.5c-0.4-0.7-0.6-1.4-0.6-2.2 s0.2-1.6,0.5-2.2c0.4-0.7,0.8-1.2,1.5-1.5s1.3-0.5,2.1-0.5c0.8,0,1.5,0.2,2.1,0.5s1.1,0.9,1.5,1.5s0.5,1.4,0.5,2.2L221.4,279.1z M215.3,276.2c-0.5,0.5-0.9,1.2-0.9,2h6c-0.1-0.8-0.4-1.5-0.9-2s-1.2-0.8-2.1-0.8C216.5,275.4,215.8,275.7,215.3,276.2z"></path> </g> <g> <path class="st4" d="M295.1,133.5c-1.2-0.6-2.1-1.5-2.7-2.6s-1-2.3-1-3.7s0.3-2.6,1-3.7s1.6-2,2.7-2.6c1.2-0.6,2.5-0.9,3.9-0.9 c1.5,0,2.8,0.3,3.9,0.9c1.2,0.6,2.1,1.5,2.7,2.6c0.7,1.1,1,2.3,1,3.7s-0.3,2.6-1,3.7c-0.7,1.1-1.6,2-2.7,2.6 c-1.2,0.6-2.5,0.9-3.9,0.9C297.6,134.5,296.3,134.1,295.1,133.5z M301.3,131.1c0.7-0.4,1.2-0.9,1.6-1.6c0.4-0.7,0.6-1.5,0.6-2.3 c0-0.9-0.2-1.6-0.6-2.3c-0.4-0.7-0.9-1.2-1.6-1.6c-0.7-0.4-1.4-0.6-2.2-0.6s-1.6,0.2-2.2,0.6c-0.7,0.4-1.2,0.9-1.6,1.6 c-0.4,0.7-0.6,1.5-0.6,2.3c0,0.9,0.2,1.6,0.6,2.3c0.4,0.7,0.9,1.2,1.6,1.6c0.7,0.4,1.4,0.6,2.2,0.6S300.6,131.5,301.3,131.1z"></path> <path class="st4" d="M319.8,123.5v10.8h-3v-1.3c-0.4,0.5-0.9,0.8-1.5,1.1c-0.6,0.2-1.2,0.4-1.9,0.4c-1.4,0-2.5-0.4-3.4-1.2 c-0.8-0.8-1.2-2-1.2-3.6v-6.1h3.1v5.6c0,1.7,0.7,2.6,2.2,2.6c0.7,0,1.3-0.2,1.8-0.7c0.5-0.5,0.7-1.2,0.7-2.2v-5.3H319.8z"></path> <path class="st4" d="M327.2,123.7c0.6-0.3,1.4-0.4,2.2-0.4v2.9c-0.3,0-0.6,0-0.7,0c-0.9,0-1.6,0.3-2.1,0.8s-0.8,1.3-0.8,2.3v5.1 h-3.1v-10.8h3v1.4C326,124.4,326.5,124,327.2,123.7z"></path> <path class="st4" d="M338,134.1c-0.9-0.2-1.5-0.5-2-0.8l1-2.2c0.5,0.3,1.1,0.6,1.7,0.8c0.7,0.2,1.3,0.3,2,0.3c1.3,0,2-0.3,2-1 c0-0.3-0.2-0.5-0.5-0.7c-0.4-0.1-0.9-0.2-1.7-0.3c-0.9-0.1-1.6-0.3-2.2-0.5c-0.6-0.2-1.1-0.5-1.5-0.9c-0.4-0.4-0.6-1.1-0.6-1.9 c0-0.7,0.2-1.3,0.6-1.8c0.4-0.5,1-0.9,1.7-1.2c0.8-0.3,1.6-0.4,2.7-0.4c0.8,0,1.5,0.1,2.3,0.3c0.8,0.2,1.4,0.4,1.9,0.7l-1,2.2 c-0.9-0.5-2-0.8-3.1-0.8c-0.7,0-1.2,0.1-1.5,0.3c-0.3,0.2-0.5,0.4-0.5,0.7c0,0.3,0.2,0.6,0.5,0.7c0.4,0.1,0.9,0.3,1.7,0.4 c0.9,0.1,1.6,0.3,2.2,0.5s1,0.5,1.5,0.9c0.4,0.4,0.6,1.1,0.6,1.8c0,0.7-0.2,1.3-0.6,1.8c-0.4,0.5-1,0.9-1.8,1.2 c-0.8,0.3-1.7,0.4-2.7,0.4C339.7,134.4,338.8,134.3,338,134.1z"></path> <path class="st4" d="M358.1,129.7h-8.1c0.1,0.7,0.5,1.2,1,1.6s1.2,0.6,2,0.6c0.6,0,1.1-0.1,1.5-0.3c0.4-0.2,0.8-0.4,1.2-0.8 l1.7,1.8c-1,1.2-2.5,1.7-4.4,1.7c-1.2,0-2.3-0.2-3.2-0.7c-0.9-0.5-1.7-1.1-2.2-2c-0.5-0.8-0.8-1.8-0.8-2.9c0-1.1,0.3-2,0.8-2.9 c0.5-0.8,1.2-1.5,2.1-2c0.9-0.5,1.8-0.7,2.9-0.7c1.1,0,2,0.2,2.9,0.7c0.9,0.5,1.5,1.1,2,2c0.5,0.8,0.7,1.8,0.7,3 C358.1,128.9,358.1,129.2,358.1,129.7z M350.8,126.3c-0.5,0.4-0.8,0.9-0.9,1.6h5.3c-0.1-0.7-0.4-1.2-0.9-1.6 c-0.5-0.4-1.1-0.6-1.8-0.6C351.8,125.7,351.2,125.9,350.8,126.3z"></path> <path class="st4" d="M364.7,123.7c0.6-0.3,1.4-0.4,2.2-0.4v2.9c-0.3,0-0.6,0-0.7,0c-0.9,0-1.6,0.3-2.1,0.8s-0.8,1.3-0.8,2.3v5.1 h-3.1v-10.8h3v1.4C363.5,124.4,364,124,364.7,123.7z"></path> <path class="st4" d="M379.8,123.5l-4.5,10.8H372l-4.5-10.8h3.2l3,7.3l3.1-7.3H379.8z"></path> <path class="st4" d="M381.2,121.5c-0.4-0.3-0.5-0.7-0.5-1.2s0.2-0.9,0.5-1.2c0.4-0.3,0.8-0.5,1.4-0.5s1,0.2,1.4,0.5 c0.4,0.3,0.5,0.7,0.5,1.2c0,0.5-0.2,0.9-0.5,1.3c-0.4,0.3-0.8,0.5-1.4,0.5S381.6,121.8,381.2,121.5z M381.1,123.5h3.1v10.8h-3.1 V123.5z"></path> <path class="st4" d="M389.2,133.7c-0.9-0.5-1.6-1.1-2.1-2c-0.5-0.8-0.8-1.8-0.8-2.9s0.3-2,0.8-2.9c0.5-0.8,1.2-1.5,2.1-2 s1.9-0.7,3.1-0.7c1.1,0,2.1,0.2,3,0.7c0.8,0.5,1.5,1.2,1.8,2l-2.4,1.3c-0.6-1-1.4-1.5-2.4-1.5c-0.8,0-1.5,0.3-2,0.8 s-0.8,1.3-0.8,2.2s0.3,1.6,0.8,2.2s1.2,0.8,2,0.8c1.1,0,1.9-0.5,2.4-1.5l2.4,1.3c-0.4,0.9-1,1.5-1.8,2c-0.8,0.5-1.8,0.7-3,0.7 C391.1,134.4,390.1,134.1,389.2,133.7z"></path> <path class="st4" d="M409.2,129.7h-8.1c0.1,0.7,0.5,1.2,1,1.6c0.5,0.4,1.2,0.6,2,0.6c0.6,0,1.1-0.1,1.5-0.3 c0.4-0.2,0.8-0.4,1.2-0.8l1.7,1.8c-1,1.2-2.5,1.7-4.4,1.7c-1.2,0-2.3-0.2-3.2-0.7c-0.9-0.5-1.7-1.1-2.2-2 c-0.5-0.8-0.8-1.8-0.8-2.9c0-1.1,0.3-2,0.8-2.9c0.5-0.8,1.2-1.5,2.1-2c0.9-0.5,1.8-0.7,2.9-0.7c1.1,0,2,0.2,2.9,0.7 c0.9,0.5,1.5,1.1,2,2c0.5,0.8,0.7,1.8,0.7,3C409.3,128.9,409.3,129.2,409.2,129.7z M401.9,126.3c-0.5,0.4-0.8,0.9-0.9,1.6h5.3 c-0.1-0.7-0.4-1.2-0.9-1.6c-0.5-0.4-1.1-0.6-1.8-0.6C403,125.7,402.4,125.9,401.9,126.3z"></path> <path class="st4" d="M412.4,134.1c-0.9-0.2-1.5-0.5-2-0.8l1-2.2c0.5,0.3,1.1,0.6,1.7,0.8c0.7,0.2,1.3,0.3,2,0.3c1.3,0,2-0.3,2-1 c0-0.3-0.2-0.5-0.5-0.7s-0.9-0.2-1.7-0.3c-0.9-0.1-1.6-0.3-2.2-0.5c-0.6-0.2-1.1-0.5-1.5-0.9c-0.4-0.4-0.6-1.1-0.6-1.9 c0-0.7,0.2-1.3,0.6-1.8c0.4-0.5,1-0.9,1.7-1.2c0.8-0.3,1.6-0.4,2.7-0.4c0.8,0,1.5,0.1,2.3,0.3c0.8,0.2,1.4,0.4,1.9,0.7l-1,2.2 c-0.9-0.5-2-0.8-3.1-0.8c-0.7,0-1.2,0.1-1.5,0.3c-0.3,0.2-0.5,0.4-0.5,0.7c0,0.3,0.2,0.6,0.5,0.7c0.4,0.1,0.9,0.3,1.7,0.4 c0.9,0.1,1.6,0.3,2.2,0.5c0.6,0.2,1,0.5,1.5,0.9c0.4,0.4,0.6,1.1,0.6,1.8c0,0.7-0.2,1.3-0.6,1.8c-0.4,0.5-1,0.9-1.8,1.2 c-0.8,0.3-1.7,0.4-2.7,0.4C414.1,134.4,413.2,134.3,412.4,134.1z"></path> <path class="st4" d="M427.8,121.5c-0.4-0.3-0.5-0.7-0.5-1.2s0.2-0.9,0.5-1.2c0.4-0.3,0.8-0.5,1.4-0.5s1,0.2,1.4,0.5 c0.4,0.3,0.5,0.7,0.5,1.2c0,0.5-0.2,0.9-0.5,1.3c-0.4,0.3-0.8,0.5-1.4,0.5S428.2,121.8,427.8,121.5z M427.7,123.5h3.1v10.8h-3.1 V123.5z"></path> <path class="st4" d="M443.5,124.5c0.8,0.8,1.2,2,1.2,3.6v6.2h-3.1v-5.7c0-0.9-0.2-1.5-0.6-1.9s-0.9-0.6-1.6-0.6 c-0.8,0-1.4,0.2-1.9,0.7c-0.5,0.5-0.7,1.2-0.7,2.2v5.3h-3.1v-10.8h3v1.3c0.4-0.5,0.9-0.8,1.5-1s1.3-0.4,2-0.4 C441.6,123.3,442.6,123.7,443.5,124.5z"></path> <path class="st4" d="M449.7,133.7c-0.9-0.5-1.6-1.1-2.1-2c-0.5-0.8-0.8-1.8-0.8-2.9s0.3-2,0.8-2.9c0.5-0.8,1.2-1.5,2.1-2 s1.9-0.7,3.1-0.7c1.1,0,2.1,0.2,3,0.7c0.8,0.5,1.5,1.2,1.8,2l-2.4,1.3c-0.6-1-1.4-1.5-2.4-1.5c-0.8,0-1.5,0.3-2,0.8 s-0.8,1.3-0.8,2.2s0.3,1.6,0.8,2.2s1.2,0.8,2,0.8c1.1,0,1.9-0.5,2.4-1.5l2.4,1.3c-0.4,0.9-1,1.5-1.8,2c-0.8,0.5-1.8,0.7-3,0.7 C451.7,134.4,450.7,134.1,449.7,133.7z"></path> <path class="st4" d="M459.4,119.4h3.1v14.8h-3.1V119.4z"></path> <path class="st4" d="M476.2,123.5v10.8h-3v-1.3c-0.4,0.5-0.9,0.8-1.5,1.1c-0.6,0.2-1.2,0.4-1.9,0.4c-1.4,0-2.5-0.4-3.4-1.2 c-0.8-0.8-1.2-2-1.2-3.6v-6.1h3.1v5.6c0,1.7,0.7,2.6,2.2,2.6c0.7,0,1.3-0.2,1.8-0.7c0.5-0.5,0.7-1.2,0.7-2.2v-5.3H476.2z"></path> <path class="st4" d="M490.1,119.4v14.8h-3V133c-0.8,0.9-1.9,1.4-3.4,1.4c-1,0-1.9-0.2-2.8-0.7c-0.8-0.5-1.5-1.1-1.9-1.9 s-0.7-1.8-0.7-2.9s0.2-2.1,0.7-2.9s1.1-1.5,1.9-1.9c0.8-0.5,1.7-0.7,2.8-0.7c1.4,0,2.4,0.4,3.2,1.3v-5.2H490.1z M486.2,131 c0.5-0.5,0.8-1.3,0.8-2.2c0-0.9-0.3-1.6-0.8-2.2c-0.5-0.5-1.2-0.8-2-0.8c-0.8,0-1.5,0.3-2,0.8c-0.5,0.5-0.8,1.3-0.8,2.2 c0,0.9,0.3,1.6,0.8,2.2c0.5,0.5,1.2,0.8,2,0.8C485.1,131.8,485.7,131.6,486.2,131z"></path> <path class="st4" d="M503.4,129.7h-8.1c0.1,0.7,0.5,1.2,1,1.6c0.5,0.4,1.2,0.6,2,0.6c0.6,0,1.1-0.1,1.5-0.3 c0.4-0.2,0.8-0.4,1.2-0.8l1.7,1.8c-1,1.2-2.5,1.7-4.4,1.7c-1.2,0-2.3-0.2-3.2-0.7c-0.9-0.5-1.7-1.1-2.2-2 c-0.5-0.8-0.8-1.8-0.8-2.9c0-1.1,0.3-2,0.8-2.9c0.5-0.8,1.2-1.5,2.1-2c0.9-0.5,1.8-0.7,2.9-0.7c1.1,0,2,0.2,2.9,0.7 c0.9,0.5,1.5,1.1,2,2c0.5,0.8,0.7,1.8,0.7,3C503.5,128.9,503.5,129.2,503.4,129.7z M496.1,126.3c-0.5,0.4-0.8,0.9-0.9,1.6h5.3 c-0.1-0.7-0.4-1.2-0.9-1.6c-0.5-0.4-1.1-0.6-1.8-0.6C497.2,125.7,496.6,125.9,496.1,126.3z"></path> <path class="st4" d="M505.4,126.6c-0.4-0.4-0.6-0.8-0.6-1.4c0-0.6,0.2-1,0.6-1.4c0.4-0.4,0.8-0.5,1.4-0.5s1,0.2,1.4,0.5 c0.4,0.4,0.6,0.8,0.6,1.4c0,0.6-0.2,1-0.6,1.4s-0.8,0.6-1.4,0.6S505.8,127,505.4,126.6z M505.4,133.8c-0.4-0.4-0.6-0.8-0.6-1.4 c0-0.6,0.2-1,0.6-1.4c0.4-0.4,0.8-0.5,1.4-0.5s1,0.2,1.4,0.5c0.4,0.4,0.6,0.8,0.6,1.4c0,0.6-0.2,1-0.6,1.4 c-0.4,0.4-0.8,0.6-1.4,0.6S505.8,134.2,505.4,133.8z"></path> </g> <g> <path class="st4" d="M79.9,468.3c-0.9-0.5-1.6-1.2-2.1-2c-0.5-0.9-0.8-1.8-0.8-2.9c0-1.1,0.3-2,0.8-2.9c0.5-0.9,1.2-1.5,2.1-2 c0.9-0.5,1.9-0.7,3-0.7c0.8,0,1.6,0.1,2.3,0.4c0.7,0.3,1.3,0.7,1.8,1.2l-0.8,0.8c-0.9-0.9-2-1.3-3.3-1.3c-0.9,0-1.7,0.2-2.4,0.6 c-0.7,0.4-1.3,1-1.7,1.7c-0.4,0.7-0.6,1.5-0.6,2.4c0,0.9,0.2,1.7,0.6,2.4c0.4,0.7,1,1.3,1.7,1.7c0.7,0.4,1.5,0.6,2.4,0.6 c1.3,0,2.4-0.4,3.3-1.3l0.8,0.8c-0.5,0.5-1.1,0.9-1.8,1.2s-1.5,0.4-2.3,0.4C81.8,469,80.8,468.8,79.9,468.3z"></path> <path class="st4" d="M90.2,468.5c-0.7-0.4-1.2-0.9-1.5-1.5s-0.6-1.4-0.6-2.2s0.2-1.6,0.6-2.2s0.9-1.2,1.5-1.5 c0.7-0.4,1.4-0.5,2.2-0.5s1.5,0.2,2.2,0.5c0.7,0.4,1.2,0.9,1.5,1.5c0.4,0.7,0.6,1.4,0.6,2.2s-0.2,1.6-0.6,2.2 c-0.4,0.7-0.9,1.2-1.5,1.5c-0.7,0.4-1.4,0.6-2.2,0.6S90.9,468.8,90.2,468.5z M94,467.6c0.5-0.3,0.8-0.7,1.1-1.2 c0.3-0.5,0.4-1.1,0.4-1.7c0-0.6-0.1-1.2-0.4-1.7c-0.3-0.5-0.6-0.9-1.1-1.2c-0.5-0.3-1-0.4-1.6-0.4c-0.6,0-1.1,0.1-1.6,0.4 c-0.5,0.3-0.8,0.7-1.1,1.2c-0.3,0.5-0.4,1.1-0.4,1.7c0,0.6,0.1,1.2,0.4,1.7s0.6,0.9,1.1,1.2c0.5,0.3,1,0.4,1.6,0.4 C93,468,93.6,467.9,94,467.6z"></path> <path class="st4" d="M105.8,461.4c0.6,0.6,0.9,1.5,0.9,2.7v4.9h-1.1v-4.8c0-0.9-0.2-1.5-0.7-2c-0.4-0.5-1.1-0.7-1.9-0.7 c-0.9,0-1.6,0.3-2.2,0.8c-0.5,0.5-0.8,1.3-0.8,2.2v4.4H99v-8.4h1.1v1.6c0.3-0.5,0.7-0.9,1.3-1.2c0.5-0.3,1.2-0.4,1.9-0.4 C104.4,460.5,105.2,460.8,105.8,461.4z"></path> <path class="st4" d="M114.3,468.4c-0.2,0.2-0.5,0.3-0.8,0.4c-0.3,0.1-0.6,0.2-1,0.2c-0.8,0-1.4-0.2-1.8-0.6 c-0.4-0.4-0.6-1-0.6-1.8v-5.1h-1.5v-1h1.5v-1.8h1.1v1.8h2.6v1h-2.6v5c0,0.5,0.1,0.9,0.4,1.1c0.3,0.3,0.6,0.4,1.1,0.4 c0.2,0,0.5,0,0.7-0.1c0.2-0.1,0.4-0.2,0.6-0.3L114.3,468.4z"></path> <path class="st4" d="M121.8,461.3c0.6,0.5,0.9,1.4,0.9,2.4v5.2h-1.1v-1.3c-0.3,0.4-0.6,0.8-1.1,1c-0.5,0.2-1.1,0.4-1.8,0.4 c-0.9,0-1.7-0.2-2.2-0.7c-0.6-0.4-0.8-1-0.8-1.8c0-0.7,0.3-1.3,0.8-1.7c0.5-0.4,1.3-0.7,2.5-0.7h2.7v-0.5c0-0.7-0.2-1.3-0.6-1.7 s-1-0.6-1.8-0.6c-0.5,0-1,0.1-1.5,0.3c-0.5,0.2-0.9,0.4-1.3,0.7l-0.5-0.8c0.4-0.4,0.9-0.6,1.5-0.8c0.6-0.2,1.2-0.3,1.9-0.3 C120.4,460.5,121.2,460.7,121.8,461.3z M120.5,467.7c0.5-0.3,0.8-0.7,1-1.3V465h-2.6c-1.4,0-2.2,0.5-2.2,1.5 c0,0.5,0.2,0.9,0.6,1.2c0.4,0.3,0.9,0.4,1.6,0.4C119.5,468.1,120.1,468,120.5,467.7z"></path> <path class="st4" d="M125.8,458.4c-0.2-0.2-0.2-0.4-0.2-0.6c0-0.2,0.1-0.4,0.2-0.6c0.2-0.2,0.4-0.2,0.6-0.2c0.2,0,0.4,0.1,0.6,0.2 c0.2,0.2,0.2,0.3,0.2,0.6c0,0.2-0.1,0.4-0.2,0.6s-0.4,0.2-0.6,0.2C126.1,458.7,125.9,458.6,125.8,458.4z M125.8,460.5h1.1v8.4 h-1.1V460.5z"></path> <path class="st4" d="M136.9,461.4c0.6,0.6,0.9,1.5,0.9,2.7v4.9h-1.1v-4.8c0-0.9-0.2-1.5-0.7-2c-0.4-0.5-1.1-0.7-1.9-0.7 c-0.9,0-1.6,0.3-2.2,0.8c-0.5,0.5-0.8,1.3-0.8,2.2v4.4h-1.1v-8.4h1.1v1.6c0.3-0.5,0.7-0.9,1.3-1.2c0.5-0.3,1.2-0.4,1.9-0.4 C135.4,460.5,136.3,460.8,136.9,461.4z"></path> <path class="st4" d="M148.3,465.1h-7c0.1,0.9,0.4,1.6,1,2.1c0.6,0.5,1.4,0.8,2.3,0.8c0.5,0,1-0.1,1.4-0.3c0.4-0.2,0.8-0.5,1.1-0.8 l0.6,0.7c-0.4,0.4-0.8,0.8-1.4,1c-0.6,0.2-1.2,0.4-1.8,0.4c-0.9,0-1.6-0.2-2.3-0.6c-0.7-0.4-1.2-0.9-1.6-1.5s-0.6-1.4-0.6-2.2 s0.2-1.6,0.5-2.2s0.8-1.2,1.5-1.5c0.6-0.4,1.3-0.5,2.1-0.5c0.8,0,1.5,0.2,2.1,0.5c0.6,0.4,1.1,0.9,1.5,1.5s0.5,1.4,0.5,2.2 L148.3,465.1z M142.2,462.2c-0.5,0.5-0.9,1.2-0.9,2h6c-0.1-0.8-0.4-1.5-0.9-2c-0.5-0.5-1.2-0.8-2.1-0.8 C143.4,461.4,142.7,461.7,142.2,462.2z"></path> <path class="st4" d="M152.9,460.9c0.5-0.3,1.2-0.4,2-0.4v1.1l-0.3,0c-0.9,0-1.6,0.3-2.1,0.8c-0.5,0.5-0.8,1.3-0.8,2.3v4.3h-1.1 v-8.4h1.1v1.6C152,461.6,152.4,461.2,152.9,460.9z"></path> <path class="st4" d="M161.5,457.7h4.6c1.2,0,2.2,0.2,3.1,0.7c0.9,0.5,1.6,1.1,2.1,2c0.5,0.8,0.8,1.8,0.8,2.9s-0.3,2.1-0.8,2.9 s-1.2,1.5-2.1,2c-0.9,0.5-2,0.7-3.1,0.7h-4.6V457.7z M166,467.9c1,0,1.8-0.2,2.6-0.6c0.7-0.4,1.3-0.9,1.7-1.6 c0.4-0.7,0.6-1.5,0.6-2.4c0-0.9-0.2-1.7-0.6-2.4c-0.4-0.7-1-1.2-1.7-1.6c-0.7-0.4-1.6-0.6-2.6-0.6h-3.3v9.2H166z"></path> <path class="st4" d="M181.8,465.1h-7c0.1,0.9,0.4,1.6,1,2.1c0.6,0.5,1.4,0.8,2.3,0.8c0.5,0,1-0.1,1.4-0.3c0.4-0.2,0.8-0.5,1.1-0.8 l0.6,0.7c-0.4,0.4-0.8,0.8-1.4,1c-0.6,0.2-1.2,0.4-1.8,0.4c-0.9,0-1.6-0.2-2.3-0.6c-0.7-0.4-1.2-0.9-1.6-1.5s-0.6-1.4-0.6-2.2 s0.2-1.6,0.5-2.2s0.8-1.2,1.5-1.5c0.6-0.4,1.3-0.5,2.1-0.5c0.8,0,1.5,0.2,2.1,0.5c0.6,0.4,1.1,0.9,1.5,1.5s0.5,1.4,0.5,2.2 L181.8,465.1z M175.7,462.2c-0.5,0.5-0.9,1.2-0.9,2h6c-0.1-0.8-0.4-1.5-0.9-2c-0.5-0.5-1.2-0.8-2.1-0.8 C176.9,461.4,176.2,461.7,175.7,462.2z"></path> <path class="st4" d="M190.6,461c0.6,0.4,1.1,0.9,1.5,1.5c0.4,0.7,0.5,1.4,0.5,2.2c0,0.8-0.2,1.6-0.5,2.2c-0.4,0.7-0.9,1.2-1.5,1.5 s-1.4,0.5-2.2,0.5c-0.7,0-1.3-0.1-1.8-0.4c-0.5-0.3-1-0.7-1.4-1.2v4.7h-1.1v-11.5h1.1v1.7c0.3-0.6,0.8-1,1.4-1.3s1.2-0.4,1.9-0.4 C189.2,460.5,189.9,460.6,190.6,461z M190,467.6c0.5-0.3,0.9-0.7,1.1-1.2s0.4-1.1,0.4-1.7c0-0.6-0.1-1.2-0.4-1.7s-0.6-0.9-1.1-1.2 s-1-0.4-1.6-0.4c-0.6,0-1.1,0.1-1.6,0.4s-0.8,0.7-1.1,1.2s-0.4,1.1-0.4,1.7c0,0.6,0.1,1.2,0.4,1.7s0.6,0.9,1.1,1.2 c0.5,0.3,1,0.4,1.6,0.4C188.9,468,189.5,467.9,190,467.6z"></path> <path class="st4" d="M196.2,468.5c-0.7-0.4-1.2-0.9-1.5-1.5s-0.6-1.4-0.6-2.2s0.2-1.6,0.6-2.2s0.9-1.2,1.5-1.5 c0.7-0.4,1.4-0.5,2.2-0.5s1.5,0.2,2.2,0.5c0.7,0.4,1.2,0.9,1.5,1.5c0.4,0.7,0.6,1.4,0.6,2.2s-0.2,1.6-0.6,2.2 c-0.4,0.7-0.9,1.2-1.5,1.5c-0.7,0.4-1.4,0.6-2.2,0.6S196.8,468.8,196.2,468.5z M200,467.6c0.5-0.3,0.8-0.7,1.1-1.2 c0.3-0.5,0.4-1.1,0.4-1.7c0-0.6-0.1-1.2-0.4-1.7c-0.3-0.5-0.6-0.9-1.1-1.2c-0.5-0.3-1-0.4-1.6-0.4c-0.6,0-1.1,0.1-1.6,0.4 c-0.5,0.3-0.8,0.7-1.1,1.2c-0.3,0.5-0.4,1.1-0.4,1.7c0,0.6,0.1,1.2,0.4,1.7s0.6,0.9,1.1,1.2c0.5,0.3,1,0.4,1.6,0.4 C199,468,199.5,467.9,200,467.6z"></path> <path class="st4" d="M209.4,468.4c-0.2,0.2-0.5,0.3-0.8,0.4c-0.3,0.1-0.6,0.2-1,0.2c-0.8,0-1.4-0.2-1.8-0.6 c-0.4-0.4-0.6-1-0.6-1.8v-5.1h-1.5v-1h1.5v-1.8h1.1v1.8h2.6v1h-2.6v5c0,0.5,0.1,0.9,0.4,1.1c0.3,0.3,0.6,0.4,1.1,0.4 c0.2,0,0.5,0,0.7-0.1c0.2-0.1,0.4-0.2,0.6-0.3L209.4,468.4z"></path> </g> <g> <path class="st4" d="M571.9,271.7h1.2v11.2h-1.2V271.7z"></path> <path class="st4" d="M583.3,275.4c0.6,0.6,0.9,1.5,0.9,2.7v4.9h-1.1v-4.8c0-0.9-0.2-1.5-0.7-2c-0.4-0.5-1.1-0.7-1.9-0.7 c-0.9,0-1.6,0.3-2.2,0.8c-0.5,0.5-0.8,1.3-0.8,2.2v4.4h-1.1v-8.4h1.1v1.6c0.3-0.5,0.7-0.9,1.3-1.2c0.5-0.3,1.2-0.4,1.9-0.4 C581.8,274.4,582.6,274.7,583.3,275.4z"></path> <path class="st4" d="M587.3,271h1.1v11.9h-1.1V271z"></path> <path class="st4" d="M597.1,275.3c0.6,0.5,0.9,1.4,0.9,2.4v5.2h-1.1v-1.3c-0.3,0.4-0.6,0.8-1.1,1s-1.1,0.4-1.8,0.4 c-0.9,0-1.7-0.2-2.2-0.7c-0.6-0.4-0.8-1-0.8-1.8c0-0.7,0.3-1.3,0.8-1.7c0.5-0.4,1.3-0.7,2.5-0.7h2.7v-0.5c0-0.7-0.2-1.3-0.6-1.7 s-1-0.6-1.8-0.6c-0.5,0-1,0.1-1.5,0.3c-0.5,0.2-0.9,0.4-1.3,0.7l-0.5-0.8c0.4-0.4,0.9-0.6,1.5-0.8c0.6-0.2,1.2-0.3,1.9-0.3 C595.6,274.4,596.5,274.7,597.1,275.3z M595.8,281.7c0.5-0.3,0.8-0.7,1-1.3V279h-2.6c-1.4,0-2.2,0.5-2.2,1.5 c0,0.5,0.2,0.9,0.6,1.2c0.4,0.3,0.9,0.4,1.6,0.4C594.8,282.1,595.3,282,595.8,281.7z"></path> <path class="st4" d="M607.8,275.4c0.6,0.6,0.9,1.5,0.9,2.7v4.9h-1.1v-4.8c0-0.9-0.2-1.5-0.7-2c-0.4-0.5-1.1-0.7-1.9-0.7 c-0.9,0-1.6,0.3-2.2,0.8c-0.5,0.5-0.8,1.3-0.8,2.2v4.4H601v-8.4h1.1v1.6c0.3-0.5,0.7-0.9,1.3-1.2c0.5-0.3,1.2-0.4,1.9-0.4 C606.4,274.4,607.2,274.7,607.8,275.4z"></path> <path class="st4" d="M619.6,271v11.9h-1.1v-1.7c-0.3,0.6-0.8,1-1.4,1.3c-0.6,0.3-1.2,0.4-1.9,0.4c-0.8,0-1.5-0.2-2.1-0.5 c-0.6-0.4-1.1-0.9-1.5-1.5c-0.4-0.7-0.5-1.4-0.5-2.2s0.2-1.6,0.5-2.2c0.4-0.7,0.9-1.2,1.5-1.5c0.6-0.4,1.4-0.5,2.1-0.5 c0.7,0,1.3,0.1,1.8,0.4c0.5,0.3,1,0.7,1.4,1.2V271H619.6z M616.9,281.6c0.5-0.3,0.8-0.7,1.1-1.2c0.3-0.5,0.4-1.1,0.4-1.7 c0-0.6-0.1-1.2-0.4-1.7c-0.3-0.5-0.6-0.9-1.1-1.2c-0.5-0.3-1-0.4-1.6-0.4c-0.6,0-1.1,0.1-1.6,0.4c-0.5,0.3-0.8,0.7-1.1,1.2 c-0.3,0.5-0.4,1.1-0.4,1.7c0,0.6,0.1,1.2,0.4,1.7c0.3,0.5,0.6,0.9,1.1,1.2c0.5,0.3,1,0.4,1.6,0.4 C615.9,282,616.5,281.9,616.9,281.6z"></path> <path class="st4" d="M629.3,272.7h-3.9v-1h9.1v1h-3.9v10.2h-1.2V272.7z"></path> <path class="st4" d="M638.2,274.9c0.5-0.3,1.2-0.4,2-0.4v1.1l-0.3,0c-0.9,0-1.6,0.3-2.1,0.8c-0.5,0.5-0.8,1.3-0.8,2.3v4.3h-1.1 v-8.4h1.1v1.6C637.2,275.6,637.6,275.2,638.2,274.9z"></path> <path class="st4" d="M647.6,275.3c0.6,0.5,0.9,1.4,0.9,2.4v5.2h-1.1v-1.3c-0.3,0.4-0.6,0.8-1.1,1s-1.1,0.4-1.8,0.4 c-0.9,0-1.7-0.2-2.2-0.7c-0.6-0.4-0.8-1-0.8-1.8c0-0.7,0.3-1.3,0.8-1.7c0.5-0.4,1.3-0.7,2.5-0.7h2.7v-0.5c0-0.7-0.2-1.3-0.6-1.7 s-1-0.6-1.8-0.6c-0.5,0-1,0.1-1.5,0.3c-0.5,0.2-0.9,0.4-1.3,0.7l-0.5-0.8c0.4-0.4,0.9-0.6,1.5-0.8c0.6-0.2,1.2-0.3,1.9-0.3 C646.2,274.4,647,274.7,647.6,275.3z M646.4,281.7c0.5-0.3,0.8-0.7,1-1.3V279h-2.6c-1.4,0-2.2,0.5-2.2,1.5c0,0.5,0.2,0.9,0.6,1.2 c0.4,0.3,0.9,0.4,1.6,0.4C645.3,282.1,645.9,282,646.4,281.7z"></path> <path class="st4" d="M658.4,275.4c0.6,0.6,0.9,1.5,0.9,2.7v4.9h-1.1v-4.8c0-0.9-0.2-1.5-0.7-2c-0.4-0.5-1.1-0.7-1.9-0.7 c-0.9,0-1.6,0.3-2.2,0.8c-0.5,0.5-0.8,1.3-0.8,2.2v4.4h-1.1v-8.4h1.1v1.6c0.3-0.5,0.7-0.9,1.3-1.2c0.5-0.3,1.2-0.4,1.9-0.4 C656.9,274.4,657.8,274.7,658.4,275.4z"></path> <path class="st4" d="M662.7,282.7c-0.6-0.2-1.1-0.4-1.5-0.7l0.5-0.9c0.4,0.3,0.8,0.5,1.3,0.7c0.5,0.2,1.1,0.3,1.7,0.3 c0.8,0,1.3-0.1,1.7-0.4s0.6-0.6,0.6-1c0-0.3-0.1-0.6-0.3-0.7c-0.2-0.2-0.5-0.3-0.8-0.4s-0.7-0.2-1.2-0.3c-0.7-0.1-1.2-0.3-1.6-0.4 c-0.4-0.1-0.8-0.4-1.1-0.7c-0.3-0.3-0.4-0.8-0.4-1.3c0-0.7,0.3-1.3,0.9-1.7c0.6-0.4,1.4-0.7,2.4-0.7c0.5,0,1.1,0.1,1.6,0.2 c0.5,0.1,1,0.3,1.3,0.6l-0.5,0.9c-0.7-0.5-1.5-0.7-2.5-0.7c-0.7,0-1.3,0.1-1.6,0.4c-0.4,0.3-0.6,0.6-0.6,1c0,0.3,0.1,0.6,0.3,0.8 c0.2,0.2,0.5,0.3,0.8,0.4s0.7,0.2,1.3,0.3c0.7,0.1,1.2,0.3,1.6,0.4s0.8,0.3,1,0.7c0.3,0.3,0.4,0.7,0.4,1.3c0,0.7-0.3,1.3-0.9,1.8 s-1.5,0.6-2.6,0.6C664,283,663.4,282.9,662.7,282.7z"></path> <path class="st4" d="M676.7,275c0.6,0.4,1.1,0.9,1.5,1.5c0.4,0.7,0.5,1.4,0.5,2.2c0,0.8-0.2,1.6-0.5,2.2c-0.4,0.7-0.9,1.2-1.5,1.5 s-1.4,0.5-2.2,0.5c-0.7,0-1.3-0.1-1.8-0.4c-0.5-0.3-1-0.7-1.4-1.2v4.7h-1.1v-11.5h1.1v1.7c0.3-0.6,0.8-1,1.4-1.3 c0.6-0.3,1.2-0.4,1.9-0.4C675.4,274.4,676.1,274.6,676.7,275z M676.1,281.6c0.5-0.3,0.9-0.7,1.1-1.2c0.3-0.5,0.4-1.1,0.4-1.7 c0-0.6-0.1-1.2-0.4-1.7c-0.3-0.5-0.6-0.9-1.1-1.2c-0.5-0.3-1-0.4-1.6-0.4c-0.6,0-1.1,0.1-1.6,0.4s-0.8,0.7-1.1,1.2 c-0.3,0.5-0.4,1.1-0.4,1.7c0,0.6,0.1,1.2,0.4,1.7c0.3,0.5,0.6,0.9,1.1,1.2c0.5,0.3,1,0.4,1.6,0.4 C675.1,282,675.6,281.9,676.1,281.6z"></path> <path class="st4" d="M682.4,282.4c-0.7-0.4-1.2-0.9-1.5-1.5c-0.4-0.7-0.6-1.4-0.6-2.2s0.2-1.6,0.6-2.2c0.4-0.7,0.9-1.2,1.5-1.5 c0.7-0.4,1.4-0.5,2.2-0.5s1.5,0.2,2.2,0.5c0.7,0.4,1.2,0.9,1.5,1.5c0.4,0.7,0.6,1.4,0.6,2.2s-0.2,1.6-0.6,2.2 c-0.4,0.7-0.9,1.2-1.5,1.5c-0.7,0.4-1.4,0.6-2.2,0.6S683,282.8,682.4,282.4z M686.2,281.6c0.5-0.3,0.8-0.7,1.1-1.2 c0.3-0.5,0.4-1.1,0.4-1.7c0-0.6-0.1-1.2-0.4-1.7c-0.3-0.5-0.6-0.9-1.1-1.2c-0.5-0.3-1-0.4-1.6-0.4s-1.1,0.1-1.6,0.4 c-0.5,0.3-0.8,0.7-1.1,1.2c-0.3,0.5-0.4,1.1-0.4,1.7c0,0.6,0.1,1.2,0.4,1.7c0.3,0.5,0.6,0.9,1.1,1.2c0.5,0.3,1,0.4,1.6,0.4 S685.7,281.9,686.2,281.6z"></path> <path class="st4" d="M693.4,274.9c0.5-0.3,1.2-0.4,2-0.4v1.1l-0.3,0c-0.9,0-1.6,0.3-2.1,0.8s-0.8,1.3-0.8,2.3v4.3h-1.1v-8.4h1.1 v1.6C692.5,275.6,692.9,275.2,693.4,274.9z"></path> <path class="st4" d="M702.2,282.4c-0.2,0.2-0.5,0.3-0.8,0.4s-0.6,0.2-1,0.2c-0.8,0-1.4-0.2-1.8-0.6c-0.4-0.4-0.6-1-0.6-1.8v-5.1 h-1.5v-1h1.5v-1.8h1.1v1.8h2.6v1h-2.6v5c0,0.5,0.1,0.9,0.4,1.1c0.3,0.3,0.6,0.4,1.1,0.4c0.2,0,0.5,0,0.7-0.1 c0.2-0.1,0.4-0.2,0.6-0.3L702.2,282.4z"></path> <path class="st4" d="M709.8,275.3c0.6,0.5,0.9,1.4,0.9,2.4v5.2h-1.1v-1.3c-0.3,0.4-0.6,0.8-1.1,1s-1.1,0.4-1.8,0.4 c-0.9,0-1.7-0.2-2.2-0.7c-0.6-0.4-0.8-1-0.8-1.8c0-0.7,0.3-1.3,0.8-1.7c0.5-0.4,1.3-0.7,2.5-0.7h2.7v-0.5c0-0.7-0.2-1.3-0.6-1.7 s-1-0.6-1.8-0.6c-0.5,0-1,0.1-1.5,0.3c-0.5,0.2-0.9,0.4-1.3,0.7l-0.5-0.8c0.4-0.4,0.9-0.6,1.5-0.8c0.6-0.2,1.2-0.3,1.9-0.3 C708.3,274.4,709.2,274.7,709.8,275.3z M708.5,281.7c0.5-0.3,0.8-0.7,1-1.3V279h-2.6c-1.4,0-2.2,0.5-2.2,1.5 c0,0.5,0.2,0.9,0.6,1.2c0.4,0.3,0.9,0.4,1.6,0.4C707.5,282.1,708,282,708.5,281.7z"></path> <path class="st4" d="M718.2,282.4c-0.2,0.2-0.5,0.3-0.8,0.4c-0.3,0.1-0.6,0.2-1,0.2c-0.8,0-1.4-0.2-1.8-0.6 c-0.4-0.4-0.6-1-0.6-1.8v-5.1h-1.5v-1h1.5v-1.8h1.1v1.8h2.6v1h-2.6v5c0,0.5,0.1,0.9,0.4,1.1s0.6,0.4,1.1,0.4c0.2,0,0.5,0,0.7-0.1 c0.2-0.1,0.4-0.2,0.6-0.3L718.2,282.4z"></path> <path class="st4" d="M720.2,272.4c-0.2-0.2-0.2-0.4-0.2-0.6c0-0.2,0.1-0.4,0.2-0.6c0.2-0.2,0.4-0.2,0.6-0.2c0.2,0,0.4,0.1,0.6,0.2 c0.2,0.2,0.2,0.3,0.2,0.6c0,0.2-0.1,0.4-0.2,0.6s-0.4,0.2-0.6,0.2C720.6,272.7,720.4,272.6,720.2,272.4z M720.2,274.5h1.1v8.4 h-1.1V274.5z"></path> <path class="st4" d="M725.8,282.4c-0.7-0.4-1.2-0.9-1.5-1.5c-0.4-0.7-0.6-1.4-0.6-2.2s0.2-1.6,0.6-2.2c0.4-0.7,0.9-1.2,1.5-1.5 c0.7-0.4,1.4-0.5,2.2-0.5s1.5,0.2,2.2,0.5c0.7,0.4,1.2,0.9,1.5,1.5c0.4,0.7,0.6,1.4,0.6,2.2s-0.2,1.6-0.6,2.2 c-0.4,0.7-0.9,1.2-1.5,1.5c-0.7,0.4-1.4,0.6-2.2,0.6S726.4,282.8,725.8,282.4z M729.6,281.6c0.5-0.3,0.8-0.7,1.1-1.2 c0.3-0.5,0.4-1.1,0.4-1.7c0-0.6-0.1-1.2-0.4-1.7c-0.3-0.5-0.6-0.9-1.1-1.2c-0.5-0.3-1-0.4-1.6-0.4s-1.1,0.1-1.6,0.4 c-0.5,0.3-0.8,0.7-1.1,1.2c-0.3,0.5-0.4,1.1-0.4,1.7c0,0.6,0.1,1.2,0.4,1.7c0.3,0.5,0.6,0.9,1.1,1.2c0.5,0.3,1,0.4,1.6,0.4 S729.1,281.9,729.6,281.6z"></path> <path class="st4" d="M741.4,275.4c0.6,0.6,0.9,1.5,0.9,2.7v4.9h-1.1v-4.8c0-0.9-0.2-1.5-0.7-2c-0.4-0.5-1.1-0.7-1.9-0.7 c-0.9,0-1.6,0.3-2.2,0.8c-0.5,0.5-0.8,1.3-0.8,2.2v4.4h-1.1v-8.4h1.1v1.6c0.3-0.5,0.7-0.9,1.3-1.2c0.5-0.3,1.2-0.4,1.9-0.4 C739.9,274.4,740.7,274.7,741.4,275.4z"></path> </g> <g> <path class="st4" d="M336.9,281.9v1H329v-11.2h7.7v1h-6.5v4h5.8v1h-5.8v4.2H336.9z"></path> <path class="st4" d="M344.6,282.9l-2.7-3.5l-2.7,3.5H338l3.3-4.3l-3.2-4.1h1.3l2.5,3.3l2.5-3.3h1.2l-3.2,4.1l3.4,4.3H344.6z"></path> <path class="st4" d="M352.2,282.4c-0.2,0.2-0.5,0.3-0.8,0.4c-0.3,0.1-0.6,0.2-1,0.2c-0.8,0-1.4-0.2-1.8-0.6 c-0.4-0.4-0.6-1-0.6-1.8v-5.1h-1.5v-1h1.5v-1.8h1.1v1.8h2.6v1h-2.6v5c0,0.5,0.1,0.9,0.4,1.1c0.3,0.3,0.6,0.4,1.1,0.4 c0.2,0,0.5,0,0.7-0.1c0.2-0.1,0.4-0.2,0.6-0.3L352.2,282.4z"></path> <path class="st4" d="M361.3,279.1h-7c0.1,0.9,0.4,1.6,1,2.1c0.6,0.5,1.4,0.8,2.3,0.8c0.5,0,1-0.1,1.4-0.3c0.4-0.2,0.8-0.5,1.1-0.8 l0.6,0.7c-0.4,0.4-0.8,0.8-1.4,1s-1.2,0.4-1.8,0.4c-0.9,0-1.6-0.2-2.3-0.6s-1.2-0.9-1.6-1.5c-0.4-0.7-0.6-1.4-0.6-2.2 s0.2-1.6,0.5-2.2c0.4-0.7,0.8-1.2,1.5-1.5s1.3-0.5,2.1-0.5c0.8,0,1.5,0.2,2.1,0.5s1.1,0.9,1.5,1.5s0.5,1.4,0.5,2.2L361.3,279.1z M355.2,276.2c-0.5,0.5-0.9,1.2-0.9,2h6c-0.1-0.8-0.4-1.5-0.9-2s-1.2-0.8-2.1-0.8C356.4,275.4,355.8,275.7,355.2,276.2z"></path> <path class="st4" d="M370.5,275.4c0.6,0.6,0.9,1.5,0.9,2.7v4.9h-1.1v-4.8c0-0.9-0.2-1.5-0.7-2c-0.4-0.5-1.1-0.7-1.9-0.7 c-0.9,0-1.6,0.3-2.2,0.8c-0.5,0.5-0.8,1.3-0.8,2.2v4.4h-1.1v-8.4h1.1v1.6c0.3-0.5,0.7-0.9,1.3-1.2s1.2-0.4,1.9-0.4 C369,274.4,369.8,274.7,370.5,275.4z"></path> <path class="st4" d="M382.2,271v11.9h-1.1v-1.7c-0.3,0.6-0.8,1-1.4,1.3c-0.6,0.3-1.2,0.4-1.9,0.4c-0.8,0-1.5-0.2-2.1-0.5 c-0.6-0.4-1.1-0.9-1.5-1.5c-0.4-0.7-0.5-1.4-0.5-2.2s0.2-1.6,0.5-2.2c0.4-0.7,0.9-1.2,1.5-1.5c0.6-0.4,1.4-0.5,2.1-0.5 c0.7,0,1.3,0.1,1.8,0.4s1,0.7,1.4,1.2V271H382.2z M379.5,281.6c0.5-0.3,0.8-0.7,1.1-1.2c0.3-0.5,0.4-1.1,0.4-1.7 c0-0.6-0.1-1.2-0.4-1.7c-0.3-0.5-0.6-0.9-1.1-1.2c-0.5-0.3-1-0.4-1.6-0.4c-0.6,0-1.1,0.1-1.6,0.4c-0.5,0.3-0.8,0.7-1.1,1.2 c-0.3,0.5-0.4,1.1-0.4,1.7c0,0.6,0.1,1.2,0.4,1.7c0.3,0.5,0.6,0.9,1.1,1.2c0.5,0.3,1,0.4,1.6,0.4 C378.5,282,379.1,281.8,379.5,281.6z"></path> <path class="st4" d="M392.7,279.1h-7c0.1,0.9,0.4,1.6,1,2.1c0.6,0.5,1.4,0.8,2.3,0.8c0.5,0,1-0.1,1.4-0.3c0.4-0.2,0.8-0.5,1.1-0.8 l0.6,0.7c-0.4,0.4-0.8,0.8-1.4,1s-1.2,0.4-1.8,0.4c-0.9,0-1.6-0.2-2.3-0.6s-1.2-0.9-1.6-1.5c-0.4-0.7-0.6-1.4-0.6-2.2 s0.2-1.6,0.5-2.2c0.4-0.7,0.8-1.2,1.5-1.5s1.3-0.5,2.1-0.5c0.8,0,1.5,0.2,2.1,0.5s1.1,0.9,1.5,1.5s0.5,1.4,0.5,2.2L392.7,279.1z M386.6,276.2c-0.5,0.5-0.9,1.2-0.9,2h6c-0.1-0.8-0.4-1.5-0.9-2s-1.2-0.8-2.1-0.8C387.8,275.4,387.1,275.7,386.6,276.2z"></path> <path class="st4" d="M402.7,271v11.9h-1.1v-1.7c-0.3,0.6-0.8,1-1.4,1.3c-0.6,0.3-1.2,0.4-1.9,0.4c-0.8,0-1.5-0.2-2.1-0.5 c-0.6-0.4-1.1-0.9-1.5-1.5c-0.4-0.7-0.5-1.4-0.5-2.2s0.2-1.6,0.5-2.2c0.4-0.7,0.9-1.2,1.5-1.5c0.6-0.4,1.4-0.5,2.1-0.5 c0.7,0,1.3,0.1,1.8,0.4s1,0.7,1.4,1.2V271H402.7z M400.1,281.6c0.5-0.3,0.8-0.7,1.1-1.2c0.3-0.5,0.4-1.1,0.4-1.7 c0-0.6-0.1-1.2-0.4-1.7c-0.3-0.5-0.6-0.9-1.1-1.2c-0.5-0.3-1-0.4-1.6-0.4c-0.6,0-1.1,0.1-1.6,0.4c-0.5,0.3-0.8,0.7-1.1,1.2 c-0.3,0.5-0.4,1.1-0.4,1.7c0,0.6,0.1,1.2,0.4,1.7c0.3,0.5,0.6,0.9,1.1,1.2c0.5,0.3,1,0.4,1.6,0.4 C399.1,282,399.6,281.8,400.1,281.6z"></path> <path class="st4" d="M419.1,278.1c0.4,0.5,0.6,1.1,0.6,1.8c0,1-0.4,1.7-1.1,2.2c-0.7,0.5-1.8,0.8-3.1,0.8h-5.2v-11.2h4.8 c1.2,0,2.2,0.3,2.9,0.8c0.7,0.5,1,1.2,1,2.1c0,0.6-0.2,1.1-0.5,1.6c-0.3,0.4-0.7,0.8-1.3,1C418.1,277.3,418.7,277.6,419.1,278.1z M411.5,272.7v4.1h3.6c0.9,0,1.6-0.2,2.1-0.5c0.5-0.3,0.7-0.9,0.7-1.5s-0.2-1.2-0.7-1.5c-0.5-0.3-1.2-0.5-2.1-0.5H411.5z M417.7,281.4c0.5-0.3,0.8-0.9,0.8-1.6c0-1.4-1-2.1-3-2.1h-4v4.2h4C416.4,281.9,417.2,281.8,417.7,281.4z"></path> <path class="st4" d="M423.4,282.4c-0.7-0.4-1.2-0.9-1.5-1.5c-0.4-0.7-0.6-1.4-0.6-2.2s0.2-1.6,0.6-2.2c0.4-0.7,0.9-1.2,1.5-1.5 c0.7-0.4,1.4-0.5,2.2-0.5s1.5,0.2,2.2,0.5s1.2,0.9,1.5,1.5c0.4,0.7,0.6,1.4,0.6,2.2s-0.2,1.6-0.6,2.2c-0.4,0.7-0.9,1.2-1.5,1.5 s-1.4,0.6-2.2,0.6S424,282.8,423.4,282.4z M427.2,281.6c0.5-0.3,0.8-0.7,1.1-1.2c0.3-0.5,0.4-1.1,0.4-1.7c0-0.6-0.1-1.2-0.4-1.7 c-0.3-0.5-0.6-0.9-1.1-1.2c-0.5-0.3-1-0.4-1.6-0.4s-1.1,0.1-1.6,0.4c-0.5,0.3-0.8,0.7-1.1,1.2c-0.3,0.5-0.4,1.1-0.4,1.7 c0,0.6,0.1,1.2,0.4,1.7c0.3,0.5,0.6,0.9,1.1,1.2c0.5,0.3,1,0.4,1.6,0.4S426.7,281.8,427.2,281.6z"></path> <path class="st4" d="M439,275.4c0.6,0.6,0.9,1.5,0.9,2.7v4.9h-1.1v-4.8c0-0.9-0.2-1.5-0.7-2c-0.4-0.5-1.1-0.7-1.9-0.7 c-0.9,0-1.6,0.3-2.2,0.8c-0.5,0.5-0.8,1.3-0.8,2.2v4.4h-1.1v-8.4h1.1v1.6c0.3-0.5,0.7-0.9,1.3-1.2c0.5-0.3,1.2-0.4,1.9-0.4 C437.5,274.4,438.3,274.7,439,275.4z"></path> <path class="st4" d="M450.7,271v11.9h-1.1v-1.7c-0.3,0.6-0.8,1-1.4,1.3c-0.6,0.3-1.2,0.4-1.9,0.4c-0.8,0-1.5-0.2-2.1-0.5 c-0.6-0.4-1.1-0.9-1.5-1.5s-0.5-1.4-0.5-2.2s0.2-1.6,0.5-2.2s0.9-1.2,1.5-1.5s1.4-0.5,2.1-0.5c0.7,0,1.3,0.1,1.8,0.4 c0.5,0.3,1,0.7,1.4,1.2V271H450.7z M448.1,281.6c0.5-0.3,0.8-0.7,1.1-1.2c0.3-0.5,0.4-1.1,0.4-1.7c0-0.6-0.1-1.2-0.4-1.7 c-0.3-0.5-0.6-0.9-1.1-1.2c-0.5-0.3-1-0.4-1.6-0.4c-0.6,0-1.1,0.1-1.6,0.4c-0.5,0.3-0.8,0.7-1.1,1.2c-0.3,0.5-0.4,1.1-0.4,1.7 c0,0.6,0.1,1.2,0.4,1.7c0.3,0.5,0.6,0.9,1.1,1.2c0.5,0.3,1,0.4,1.6,0.4C447.1,282,447.6,281.8,448.1,281.6z"></path> <path class="st4" d="M461.2,279.1h-7c0.1,0.9,0.4,1.6,1,2.1c0.6,0.5,1.4,0.8,2.3,0.8c0.5,0,1-0.1,1.4-0.3s0.8-0.5,1.1-0.8l0.6,0.7 c-0.4,0.4-0.8,0.8-1.4,1c-0.6,0.2-1.2,0.4-1.8,0.4c-0.9,0-1.6-0.2-2.3-0.6c-0.7-0.4-1.2-0.9-1.6-1.5c-0.4-0.7-0.6-1.4-0.6-2.2 s0.2-1.6,0.5-2.2c0.4-0.7,0.8-1.2,1.5-1.5s1.3-0.5,2.1-0.5c0.8,0,1.5,0.2,2.1,0.5c0.6,0.4,1.1,0.9,1.5,1.5 c0.4,0.6,0.5,1.4,0.5,2.2L461.2,279.1z M455.1,276.2c-0.5,0.5-0.9,1.2-0.9,2h6c-0.1-0.8-0.4-1.5-0.9-2c-0.5-0.5-1.2-0.8-2.1-0.8 C456.3,275.4,455.6,275.7,455.1,276.2z"></path> <path class="st4" d="M471.2,271v11.9h-1.1v-1.7c-0.3,0.6-0.8,1-1.4,1.3c-0.6,0.3-1.2,0.4-1.9,0.4c-0.8,0-1.5-0.2-2.1-0.5 c-0.6-0.4-1.1-0.9-1.5-1.5s-0.5-1.4-0.5-2.2s0.2-1.6,0.5-2.2s0.9-1.2,1.5-1.5s1.4-0.5,2.1-0.5c0.7,0,1.3,0.1,1.8,0.4 c0.5,0.3,1,0.7,1.4,1.2V271H471.2z M468.6,281.6c0.5-0.3,0.8-0.7,1.1-1.2c0.3-0.5,0.4-1.1,0.4-1.7c0-0.6-0.1-1.2-0.4-1.7 c-0.3-0.5-0.6-0.9-1.1-1.2c-0.5-0.3-1-0.4-1.6-0.4c-0.6,0-1.1,0.1-1.6,0.4c-0.5,0.3-0.8,0.7-1.1,1.2c-0.3,0.5-0.4,1.1-0.4,1.7 c0,0.6,0.1,1.2,0.4,1.7c0.3,0.5,0.6,0.9,1.1,1.2c0.5,0.3,1,0.4,1.6,0.4C467.6,282,468.1,281.8,468.6,281.6z"></path> <path class="st4" d="M371.5,290.9l-3.8,11.2h-1.2l-3.3-9.6l-3.3,9.6h-1.2l-3.8-11.2h1.2l3.2,9.6l3.3-9.6h1.1l3.3,9.7l3.3-9.7 H371.5z"></path> <path class="st4" d="M378.3,294.5c0.6,0.5,0.9,1.4,0.9,2.4v5.2h-1.1v-1.3c-0.3,0.4-0.6,0.8-1.1,1c-0.5,0.2-1.1,0.4-1.8,0.4 c-0.9,0-1.7-0.2-2.2-0.7s-0.8-1-0.8-1.8c0-0.7,0.3-1.3,0.8-1.7c0.5-0.4,1.3-0.7,2.5-0.7h2.7v-0.5c0-0.7-0.2-1.3-0.6-1.7 c-0.4-0.4-1-0.6-1.8-0.6c-0.5,0-1,0.1-1.5,0.3s-0.9,0.4-1.3,0.7l-0.5-0.8c0.4-0.4,0.9-0.6,1.5-0.8c0.6-0.2,1.2-0.3,1.9-0.3 C376.8,293.6,377.7,293.9,378.3,294.5z M377,300.9c0.5-0.3,0.8-0.7,1-1.3v-1.4h-2.6c-1.4,0-2.2,0.5-2.2,1.5c0,0.5,0.2,0.9,0.6,1.2 c0.4,0.3,0.9,0.4,1.6,0.4C376,301.3,376.5,301.2,377,300.9z"></path> <path class="st4" d="M384.5,294.1c0.5-0.3,1.2-0.4,2-0.4v1.1l-0.3,0c-0.9,0-1.6,0.3-2.1,0.8c-0.5,0.5-0.8,1.3-0.8,2.3v4.3h-1.1 v-8.4h1.1v1.6C383.6,294.8,384,294.4,384.5,294.1z"></path> <path class="st4" d="M395.8,298.3h-7c0.1,0.9,0.4,1.6,1,2.1c0.6,0.5,1.4,0.8,2.3,0.8c0.5,0,1-0.1,1.4-0.3c0.4-0.2,0.8-0.5,1.1-0.8 l0.6,0.7c-0.4,0.4-0.8,0.8-1.4,1s-1.2,0.4-1.8,0.4c-0.9,0-1.6-0.2-2.3-0.6s-1.2-0.9-1.6-1.5c-0.4-0.7-0.6-1.4-0.6-2.2 s0.2-1.6,0.5-2.2c0.4-0.7,0.8-1.2,1.5-1.5s1.3-0.5,2.1-0.5c0.8,0,1.5,0.2,2.1,0.5s1.1,0.9,1.5,1.5s0.5,1.4,0.5,2.2L395.8,298.3z M389.7,295.4c-0.5,0.5-0.9,1.2-0.9,2h6c-0.1-0.8-0.4-1.5-0.9-2s-1.2-0.8-2.1-0.8C390.9,294.6,390.2,294.9,389.7,295.4z"></path> <path class="st4" d="M404.9,294.6c0.6,0.6,0.9,1.5,0.9,2.7v4.9h-1.1v-4.8c0-0.9-0.2-1.5-0.7-2c-0.4-0.5-1.1-0.7-1.9-0.7 c-0.9,0-1.6,0.3-2.2,0.8c-0.5,0.5-0.8,1.3-0.8,2.2v4.4h-1.1v-11.9h1.1v4.9c0.3-0.5,0.7-0.9,1.3-1.1s1.2-0.4,1.9-0.4 C403.5,293.6,404.3,293.9,404.9,294.6z"></path> <path class="st4" d="M410.2,301.6c-0.7-0.4-1.2-0.9-1.5-1.5c-0.4-0.7-0.6-1.4-0.6-2.2s0.2-1.6,0.6-2.2c0.4-0.7,0.9-1.2,1.5-1.5 c0.7-0.4,1.4-0.5,2.2-0.5s1.5,0.2,2.2,0.5s1.2,0.9,1.5,1.5c0.4,0.7,0.6,1.4,0.6,2.2s-0.2,1.6-0.6,2.2c-0.4,0.7-0.9,1.2-1.5,1.5 s-1.4,0.6-2.2,0.6S410.9,302,410.2,301.6z M414,300.8c0.5-0.3,0.8-0.7,1.1-1.2c0.3-0.5,0.4-1.1,0.4-1.7c0-0.6-0.1-1.2-0.4-1.7 c-0.3-0.5-0.6-0.9-1.1-1.2c-0.5-0.3-1-0.4-1.6-0.4s-1.1,0.1-1.6,0.4c-0.5,0.3-0.8,0.7-1.1,1.2c-0.3,0.5-0.4,1.1-0.4,1.7 c0,0.6,0.1,1.2,0.4,1.7c0.3,0.5,0.6,0.9,1.1,1.2c0.5,0.3,1,0.4,1.6,0.4S413.5,301,414,300.8z"></path> <path class="st4" d="M426.6,293.7v8.4h-1.1v-1.5c-0.3,0.5-0.7,0.9-1.2,1.2c-0.5,0.3-1.1,0.4-1.8,0.4c-1.1,0-2-0.3-2.6-0.9 c-0.6-0.6-1-1.5-1-2.7v-4.9h1.1v4.8c0,0.9,0.2,1.6,0.7,2c0.4,0.5,1.1,0.7,1.9,0.7c0.9,0,1.6-0.3,2.1-0.8c0.5-0.5,0.8-1.3,0.8-2.2 v-4.4H426.6z"></path> <path class="st4" d="M430.1,301.9c-0.6-0.2-1.1-0.4-1.5-0.7l0.5-0.9c0.4,0.3,0.8,0.5,1.3,0.7s1.1,0.3,1.7,0.3 c0.8,0,1.3-0.1,1.7-0.4c0.4-0.2,0.6-0.6,0.6-1c0-0.3-0.1-0.6-0.3-0.7c-0.2-0.2-0.5-0.3-0.8-0.4c-0.3-0.1-0.7-0.2-1.2-0.3 c-0.7-0.1-1.2-0.3-1.6-0.4c-0.4-0.1-0.8-0.4-1.1-0.7c-0.3-0.3-0.4-0.8-0.4-1.3c0-0.7,0.3-1.3,0.9-1.7s1.4-0.7,2.4-0.7 c0.5,0,1.1,0.1,1.6,0.2c0.5,0.1,1,0.3,1.3,0.6l-0.5,0.9c-0.7-0.5-1.5-0.7-2.5-0.7c-0.7,0-1.3,0.1-1.6,0.4c-0.4,0.3-0.6,0.6-0.6,1 c0,0.3,0.1,0.6,0.3,0.8s0.5,0.3,0.8,0.4s0.7,0.2,1.3,0.3c0.7,0.1,1.2,0.3,1.6,0.4s0.8,0.3,1,0.7s0.4,0.7,0.4,1.3 c0,0.7-0.3,1.3-0.9,1.8c-0.6,0.4-1.5,0.6-2.6,0.6C431.3,302.2,430.7,302.1,430.1,301.9z"></path> <path class="st4" d="M444.9,298.3h-7c0.1,0.9,0.4,1.6,1,2.1c0.6,0.5,1.4,0.8,2.3,0.8c0.5,0,1-0.1,1.4-0.3c0.4-0.2,0.8-0.5,1.1-0.8 l0.6,0.7c-0.4,0.4-0.8,0.8-1.4,1c-0.6,0.2-1.2,0.4-1.8,0.4c-0.9,0-1.6-0.2-2.3-0.6c-0.7-0.4-1.2-0.9-1.6-1.5 c-0.4-0.7-0.6-1.4-0.6-2.2s0.2-1.6,0.5-2.2c0.4-0.7,0.8-1.2,1.5-1.5s1.3-0.5,2.1-0.5s1.5,0.2,2.1,0.5c0.6,0.4,1.1,0.9,1.5,1.5 c0.4,0.6,0.5,1.4,0.5,2.2L444.9,298.3z M438.8,295.4c-0.5,0.5-0.9,1.2-0.9,2h6c-0.1-0.8-0.4-1.5-0.9-2c-0.5-0.5-1.2-0.8-2.1-0.8 C440.1,294.6,439.4,294.9,438.8,295.4z"></path> </g> <g> <path class="st4" d="M324.3,468.2c-0.9-0.5-1.6-1.2-2.1-2c-0.5-0.9-0.8-1.8-0.8-2.9c0-1.1,0.3-2,0.8-2.9c0.5-0.9,1.2-1.5,2.1-2 c0.9-0.5,1.9-0.7,3-0.7c0.8,0,1.6,0.1,2.3,0.4c0.7,0.3,1.3,0.7,1.8,1.2l-0.8,0.8c-0.9-0.9-2-1.3-3.3-1.3c-0.9,0-1.7,0.2-2.4,0.6 c-0.7,0.4-1.3,1-1.7,1.7c-0.4,0.7-0.6,1.5-0.6,2.4c0,0.9,0.2,1.7,0.6,2.4c0.4,0.7,1,1.3,1.7,1.7c0.7,0.4,1.5,0.6,2.4,0.6 c1.3,0,2.4-0.4,3.3-1.3l0.8,0.8c-0.5,0.5-1.1,0.9-1.8,1.2s-1.5,0.4-2.3,0.4C326.2,468.9,325.2,468.7,324.3,468.2z"></path> <path class="st4" d="M333.7,457h1.1v11.9h-1.1V457z"></path> <path class="st4" d="M345.4,465h-7c0.1,0.9,0.4,1.6,1,2.1c0.6,0.5,1.4,0.8,2.3,0.8c0.5,0,1-0.1,1.4-0.3c0.4-0.2,0.8-0.5,1.1-0.8 l0.6,0.7c-0.4,0.4-0.8,0.8-1.4,1c-0.6,0.2-1.2,0.4-1.8,0.4c-0.9,0-1.6-0.2-2.3-0.6c-0.7-0.4-1.2-0.9-1.6-1.5s-0.6-1.4-0.6-2.2 s0.2-1.6,0.5-2.2s0.8-1.2,1.5-1.5c0.6-0.4,1.3-0.5,2.1-0.5c0.8,0,1.5,0.2,2.1,0.5c0.6,0.4,1.1,0.9,1.5,1.5s0.5,1.4,0.5,2.2 L345.4,465z M339.2,462.1c-0.5,0.5-0.9,1.2-0.9,2h6c-0.1-0.8-0.4-1.5-0.9-2c-0.5-0.5-1.2-0.8-2.1-0.8 C340.5,461.3,339.8,461.6,339.2,462.1z"></path> <path class="st4" d="M352.9,461.2c0.6,0.5,0.9,1.4,0.9,2.4v5.2h-1.1v-1.3c-0.3,0.4-0.6,0.8-1.1,1c-0.5,0.2-1.1,0.4-1.8,0.4 c-0.9,0-1.7-0.2-2.2-0.7c-0.6-0.4-0.8-1-0.8-1.8c0-0.7,0.3-1.3,0.8-1.7c0.5-0.4,1.3-0.7,2.5-0.7h2.7v-0.5c0-0.7-0.2-1.3-0.6-1.7 s-1-0.6-1.8-0.6c-0.5,0-1,0.1-1.5,0.3c-0.5,0.2-0.9,0.4-1.3,0.7l-0.5-0.8c0.4-0.4,0.9-0.6,1.5-0.8c0.6-0.2,1.2-0.3,1.9-0.3 C351.5,460.4,352.3,460.6,352.9,461.2z M351.6,467.6c0.5-0.3,0.8-0.7,1-1.3v-1.4H350c-1.4,0-2.2,0.5-2.2,1.5 c0,0.5,0.2,0.9,0.6,1.2c0.4,0.3,0.9,0.4,1.6,0.4C350.6,468,351.2,467.9,351.6,467.6z"></path> <path class="st4" d="M359.2,460.8c0.5-0.3,1.2-0.4,2-0.4v1.1l-0.3,0c-0.9,0-1.6,0.3-2.1,0.8c-0.5,0.5-0.8,1.3-0.8,2.3v4.3h-1.1 v-8.4h1.1v1.6C358.2,461.5,358.6,461.1,359.2,460.8z"></path> <path class="st4" d="M370.4,465h-7c0.1,0.9,0.4,1.6,1,2.1c0.6,0.5,1.4,0.8,2.3,0.8c0.5,0,1-0.1,1.4-0.3c0.4-0.2,0.8-0.5,1.1-0.8 l0.6,0.7c-0.4,0.4-0.8,0.8-1.4,1c-0.6,0.2-1.2,0.4-1.8,0.4c-0.9,0-1.6-0.2-2.3-0.6c-0.7-0.4-1.2-0.9-1.6-1.5s-0.6-1.4-0.6-2.2 s0.2-1.6,0.5-2.2s0.8-1.2,1.5-1.5c0.6-0.4,1.3-0.5,2.1-0.5c0.8,0,1.5,0.2,2.1,0.5c0.6,0.4,1.1,0.9,1.5,1.5s0.5,1.4,0.5,2.2 L370.4,465z M364.3,462.1c-0.5,0.5-0.9,1.2-0.9,2h6c-0.1-0.8-0.4-1.5-0.9-2c-0.5-0.5-1.2-0.8-2.1-0.8 C365.6,461.3,364.9,461.6,364.3,462.1z"></path> <path class="st4" d="M379.6,461.3c0.6,0.6,0.9,1.5,0.9,2.7v4.9h-1.1v-4.8c0-0.9-0.2-1.5-0.7-2c-0.4-0.5-1.1-0.7-1.9-0.7 c-0.9,0-1.6,0.3-2.2,0.8c-0.5,0.5-0.8,1.3-0.8,2.2v4.4h-1.1v-8.4h1.1v1.6c0.3-0.5,0.7-0.9,1.3-1.2c0.5-0.3,1.2-0.4,1.9-0.4 C378.1,460.4,378.9,460.7,379.6,461.3z"></path> <path class="st4" d="M384.9,468.4c-0.7-0.4-1.2-0.9-1.5-1.5s-0.6-1.4-0.6-2.2s0.2-1.6,0.6-2.2s0.9-1.2,1.5-1.5 c0.7-0.4,1.4-0.5,2.2-0.5c0.7,0,1.4,0.1,1.9,0.4c0.6,0.3,1,0.7,1.4,1.2l-0.8,0.6c-0.3-0.4-0.6-0.7-1.1-0.9s-0.9-0.3-1.4-0.3 c-0.6,0-1.2,0.1-1.6,0.4c-0.5,0.3-0.9,0.7-1.1,1.2c-0.3,0.5-0.4,1.1-0.4,1.7c0,0.7,0.1,1.2,0.4,1.7s0.7,0.9,1.1,1.2 c0.5,0.3,1,0.4,1.6,0.4c0.5,0,1-0.1,1.4-0.3c0.4-0.2,0.8-0.5,1.1-0.9l0.8,0.6c-0.3,0.5-0.8,1-1.4,1.2c-0.6,0.3-1.2,0.4-1.9,0.4 C386.3,468.9,385.5,468.7,384.9,468.4z"></path> <path class="st4" d="M399.8,465h-7c0.1,0.9,0.4,1.6,1,2.1c0.6,0.5,1.4,0.8,2.3,0.8c0.5,0,1-0.1,1.4-0.3c0.4-0.2,0.8-0.5,1.1-0.8 l0.6,0.7c-0.4,0.4-0.8,0.8-1.4,1c-0.6,0.2-1.2,0.4-1.8,0.4c-0.9,0-1.6-0.2-2.3-0.6c-0.7-0.4-1.2-0.9-1.6-1.5s-0.6-1.4-0.6-2.2 s0.2-1.6,0.5-2.2s0.8-1.2,1.5-1.5c0.6-0.4,1.3-0.5,2.1-0.5c0.8,0,1.5,0.2,2.1,0.5c0.6,0.4,1.1,0.9,1.5,1.5s0.5,1.4,0.5,2.2 L399.8,465z M393.7,462.1c-0.5,0.5-0.9,1.2-0.9,2h6c-0.1-0.8-0.4-1.5-0.9-2c-0.5-0.5-1.2-0.8-2.1-0.8 C394.9,461.3,394.3,461.6,393.7,462.1z"></path> <path class="st4" d="M415.9,457.6v11.2h-1.2v-5.2h-7v5.2h-1.2v-11.2h1.2v5h7v-5H415.9z"></path> <path class="st4" d="M424.8,461.2c0.6,0.5,0.9,1.4,0.9,2.4v5.2h-1.1v-1.3c-0.3,0.4-0.6,0.8-1.1,1c-0.5,0.2-1.1,0.4-1.8,0.4 c-0.9,0-1.7-0.2-2.2-0.7c-0.6-0.4-0.8-1-0.8-1.8c0-0.7,0.3-1.3,0.8-1.7c0.5-0.4,1.3-0.7,2.5-0.7h2.7v-0.5c0-0.7-0.2-1.3-0.6-1.7 s-1-0.6-1.8-0.6c-0.5,0-1,0.1-1.5,0.3c-0.5,0.2-0.9,0.4-1.3,0.7l-0.5-0.8c0.4-0.4,0.9-0.6,1.5-0.8c0.6-0.2,1.2-0.3,1.9-0.3 C423.4,460.4,424.2,460.6,424.8,461.2z M423.5,467.6c0.5-0.3,0.8-0.7,1-1.3v-1.4h-2.6c-1.4,0-2.2,0.5-2.2,1.5 c0,0.5,0.2,0.9,0.6,1.2c0.4,0.3,0.9,0.4,1.6,0.4C422.5,468,423.1,467.9,423.5,467.6z"></path> <path class="st4" d="M435.6,461.3c0.6,0.6,0.9,1.5,0.9,2.7v4.9h-1.1v-4.8c0-0.9-0.2-1.5-0.7-2c-0.4-0.5-1.1-0.7-1.9-0.7 c-0.9,0-1.6,0.3-2.2,0.8c-0.5,0.5-0.8,1.3-0.8,2.2v4.4h-1.1v-8.4h1.1v1.6c0.3-0.5,0.7-0.9,1.3-1.2c0.5-0.3,1.2-0.4,1.9-0.4 C434.1,460.4,435,460.7,435.6,461.3z"></path> <path class="st4" d="M447.3,457v11.9h-1.1v-1.7c-0.3,0.6-0.8,1-1.4,1.3c-0.6,0.3-1.2,0.4-1.9,0.4c-0.8,0-1.5-0.2-2.1-0.5 c-0.6-0.4-1.1-0.9-1.5-1.5c-0.4-0.7-0.5-1.4-0.5-2.2s0.2-1.6,0.5-2.2c0.4-0.7,0.9-1.2,1.5-1.5c0.6-0.4,1.4-0.5,2.1-0.5 c0.7,0,1.3,0.1,1.8,0.4c0.5,0.3,1,0.7,1.4,1.2V457H447.3z M444.7,467.5c0.5-0.3,0.8-0.7,1.1-1.2c0.3-0.5,0.4-1.1,0.4-1.7 c0-0.6-0.1-1.2-0.4-1.7c-0.3-0.5-0.6-0.9-1.1-1.2c-0.5-0.3-1-0.4-1.6-0.4c-0.6,0-1.1,0.1-1.6,0.4c-0.5,0.3-0.8,0.7-1.1,1.2 c-0.3,0.5-0.4,1.1-0.4,1.7c0,0.6,0.1,1.2,0.4,1.7c0.3,0.5,0.6,0.9,1.1,1.2c0.5,0.3,1,0.4,1.6,0.4 C443.7,467.9,444.2,467.8,444.7,467.5z"></path> <path class="st4" d="M450.5,457h1.1v11.9h-1.1V457z"></path> <path class="st4" d="M454.8,458.3c-0.2-0.2-0.2-0.4-0.2-0.6c0-0.2,0.1-0.4,0.2-0.6c0.2-0.2,0.4-0.2,0.6-0.2c0.2,0,0.4,0.1,0.6,0.2 c0.2,0.2,0.2,0.3,0.2,0.6c0,0.2-0.1,0.4-0.2,0.6s-0.4,0.2-0.6,0.2C455.1,458.6,455,458.5,454.8,458.3z M454.8,460.4h1.1v8.4h-1.1 V460.4z"></path> <path class="st4" d="M465.9,461.3c0.6,0.6,0.9,1.5,0.9,2.7v4.9h-1.1v-4.8c0-0.9-0.2-1.5-0.7-2c-0.4-0.5-1.1-0.7-1.9-0.7 c-0.9,0-1.6,0.3-2.2,0.8c-0.5,0.5-0.8,1.3-0.8,2.2v4.4h-1.1v-8.4h1.1v1.6c0.3-0.5,0.7-0.9,1.3-1.2c0.5-0.3,1.2-0.4,1.9-0.4 C464.5,460.4,465.3,460.7,465.9,461.3z"></path> <path class="st4" d="M477.8,460.4v7.4c0,1.4-0.3,2.5-1,3.2c-0.7,0.7-1.8,1-3.2,1c-0.8,0-1.5-0.1-2.2-0.3s-1.3-0.5-1.7-1l0.6-0.9 c0.4,0.4,0.9,0.6,1.5,0.8c0.6,0.2,1.2,0.3,1.8,0.3c1.1,0,1.8-0.2,2.4-0.7c0.5-0.5,0.8-1.3,0.8-2.3v-1.1c-0.4,0.5-0.8,0.9-1.4,1.2 c-0.6,0.3-1.2,0.4-1.9,0.4c-0.8,0-1.5-0.2-2.2-0.5c-0.6-0.3-1.2-0.8-1.5-1.5s-0.6-1.3-0.6-2.1s0.2-1.5,0.6-2.1 c0.4-0.6,0.9-1.1,1.5-1.4c0.6-0.3,1.4-0.5,2.2-0.5c0.7,0,1.4,0.1,1.9,0.4s1,0.7,1.4,1.2v-1.6H477.8z M475.1,467.1 c0.5-0.3,0.9-0.6,1.1-1.1c0.3-0.5,0.4-1,0.4-1.6s-0.1-1.1-0.4-1.6c-0.3-0.5-0.7-0.8-1.1-1.1c-0.5-0.3-1-0.4-1.7-0.4 c-0.6,0-1.2,0.1-1.6,0.4c-0.5,0.3-0.9,0.6-1.1,1.1c-0.3,0.5-0.4,1-0.4,1.6s0.1,1.1,0.4,1.6c0.3,0.5,0.7,0.8,1.1,1.1 c0.5,0.3,1,0.4,1.6,0.4S474.6,467.4,475.1,467.1z"></path> </g> <g> <path class="st4" d="M611.7,458.7c0.8,0.7,1.2,1.6,1.2,2.8c0,1.2-0.4,2.1-1.2,2.8c-0.8,0.7-1.9,1-3.4,1h-3v3.5h-1.2v-11.2h4.2 C609.8,457.6,610.9,458,611.7,458.7z M610.8,463.5c0.6-0.5,0.9-1.2,0.9-2.1c0-0.9-0.3-1.6-0.9-2.1c-0.6-0.5-1.4-0.7-2.5-0.7h-3 v5.6h3C609.4,464.3,610.3,464,610.8,463.5z"></path> <path class="st4" d="M617.3,460.8c0.5-0.3,1.2-0.4,2-0.4v1.1l-0.3,0c-0.9,0-1.6,0.3-2.1,0.8s-0.8,1.3-0.8,2.3v4.3H615v-8.4h1.1 v1.6C616.4,461.5,616.8,461.1,617.3,460.8z"></path> <path class="st4" d="M622.5,468.4c-0.7-0.4-1.2-0.9-1.5-1.5c-0.4-0.7-0.6-1.4-0.6-2.2s0.2-1.6,0.6-2.2c0.4-0.7,0.9-1.2,1.5-1.5 c0.7-0.4,1.4-0.5,2.2-0.5s1.5,0.2,2.2,0.5c0.7,0.4,1.2,0.9,1.5,1.5s0.6,1.4,0.6,2.2s-0.2,1.6-0.6,2.2s-0.9,1.2-1.5,1.5 c-0.7,0.4-1.4,0.6-2.2,0.6S623.1,468.7,622.5,468.4z M626.3,467.5c0.5-0.3,0.8-0.7,1.1-1.2s0.4-1.1,0.4-1.7c0-0.6-0.1-1.2-0.4-1.7 c-0.3-0.5-0.6-0.9-1.1-1.2c-0.5-0.3-1-0.4-1.6-0.4c-0.6,0-1.1,0.1-1.6,0.4c-0.5,0.3-0.8,0.7-1.1,1.2c-0.3,0.5-0.4,1.1-0.4,1.7 c0,0.6,0.1,1.2,0.4,1.7c0.3,0.5,0.6,0.9,1.1,1.2c0.5,0.3,1,0.4,1.6,0.4C625.3,467.9,625.8,467.8,626.3,467.5z"></path> <path class="st4" d="M629,471.9c-0.3-0.1-0.6-0.2-0.8-0.4l0.4-0.9c0.3,0.3,0.8,0.4,1.3,0.4c0.4,0,0.8-0.1,1-0.4 c0.2-0.3,0.4-0.7,0.4-1.2v-9h1.1v9c0,0.8-0.2,1.4-0.6,1.9c-0.4,0.5-1,0.7-1.8,0.7C629.7,472,629.3,472,629,471.9z M631.3,458.3 c-0.2-0.2-0.2-0.4-0.2-0.6c0-0.2,0.1-0.4,0.2-0.6s0.4-0.2,0.6-0.2s0.4,0.1,0.6,0.2s0.2,0.3,0.2,0.6c0,0.2-0.1,0.4-0.2,0.6 c-0.2,0.2-0.4,0.2-0.6,0.2S631.5,458.5,631.3,458.3z"></path> <path class="st4" d="M643,465h-7c0.1,0.9,0.4,1.6,1,2.1c0.6,0.5,1.4,0.8,2.3,0.8c0.5,0,1-0.1,1.4-0.3s0.8-0.5,1.1-0.8l0.6,0.7 c-0.4,0.4-0.8,0.8-1.4,1c-0.6,0.2-1.2,0.4-1.8,0.4c-0.9,0-1.6-0.2-2.3-0.6c-0.7-0.4-1.2-0.9-1.6-1.5c-0.4-0.7-0.6-1.4-0.6-2.2 s0.2-1.6,0.5-2.2s0.8-1.2,1.5-1.5c0.6-0.4,1.3-0.5,2.1-0.5c0.8,0,1.5,0.2,2.1,0.5c0.6,0.4,1.1,0.9,1.5,1.5 c0.4,0.6,0.5,1.4,0.5,2.2L643,465z M636.9,462.1c-0.5,0.5-0.9,1.2-0.9,2h6c-0.1-0.8-0.4-1.5-0.9-2c-0.5-0.5-1.2-0.8-2.1-0.8 C638.1,461.3,637.4,461.6,636.9,462.1z"></path> <path class="st4" d="M646.6,468.4c-0.7-0.4-1.2-0.9-1.5-1.5c-0.4-0.7-0.6-1.4-0.6-2.2s0.2-1.6,0.6-2.2c0.4-0.7,0.9-1.2,1.5-1.5 c0.7-0.4,1.4-0.5,2.2-0.5c0.7,0,1.4,0.1,1.9,0.4c0.6,0.3,1,0.7,1.4,1.2l-0.8,0.6c-0.3-0.4-0.6-0.7-1.1-0.9s-0.9-0.3-1.4-0.3 c-0.6,0-1.2,0.1-1.6,0.4c-0.5,0.3-0.9,0.7-1.1,1.2c-0.3,0.5-0.4,1.1-0.4,1.7c0,0.7,0.1,1.2,0.4,1.7c0.3,0.5,0.7,0.9,1.1,1.2 c0.5,0.3,1,0.4,1.6,0.4c0.5,0,1-0.1,1.4-0.3c0.4-0.2,0.8-0.5,1.1-0.9l0.8,0.6c-0.3,0.5-0.8,1-1.4,1.2c-0.6,0.3-1.2,0.4-1.9,0.4 C648,468.9,647.2,468.7,646.6,468.4z"></path> <path class="st4" d="M658.8,468.3c-0.2,0.2-0.5,0.3-0.8,0.4s-0.6,0.2-1,0.2c-0.8,0-1.4-0.2-1.8-0.6c-0.4-0.4-0.6-1-0.6-1.8v-5.1 h-1.5v-1h1.5v-1.8h1.1v1.8h2.6v1h-2.6v5c0,0.5,0.1,0.9,0.4,1.1c0.3,0.3,0.6,0.4,1.1,0.4c0.2,0,0.5,0,0.7-0.1 c0.2-0.1,0.4-0.2,0.6-0.3L658.8,468.3z"></path> <path class="st4" d="M667.2,468.2c-0.9-0.5-1.6-1.2-2.1-2c-0.5-0.9-0.8-1.8-0.8-2.9c0-1.1,0.3-2,0.8-2.9c0.5-0.9,1.2-1.5,2.1-2 c0.9-0.5,1.9-0.7,3-0.7c0.8,0,1.6,0.1,2.3,0.4s1.3,0.7,1.8,1.2l-0.8,0.8c-0.9-0.9-2-1.3-3.3-1.3c-0.9,0-1.7,0.2-2.4,0.6 c-0.7,0.4-1.3,1-1.7,1.7c-0.4,0.7-0.6,1.5-0.6,2.4c0,0.9,0.2,1.7,0.6,2.4c0.4,0.7,1,1.3,1.7,1.7c0.7,0.4,1.5,0.6,2.4,0.6 c1.3,0,2.4-0.4,3.3-1.3l0.8,0.8c-0.5,0.5-1.1,0.9-1.8,1.2c-0.7,0.3-1.5,0.4-2.3,0.4C669.1,468.9,668.1,468.7,667.2,468.2z"></path> <path class="st4" d="M681.9,461.2c0.6,0.5,0.9,1.4,0.9,2.4v5.2h-1.1v-1.3c-0.3,0.4-0.6,0.8-1.1,1s-1.1,0.4-1.8,0.4 c-0.9,0-1.7-0.2-2.2-0.7c-0.6-0.4-0.8-1-0.8-1.8c0-0.7,0.3-1.3,0.8-1.7c0.5-0.4,1.3-0.7,2.5-0.7h2.7v-0.5c0-0.7-0.2-1.3-0.6-1.7 s-1-0.6-1.8-0.6c-0.5,0-1,0.1-1.5,0.3c-0.5,0.2-0.9,0.4-1.3,0.7l-0.5-0.8c0.4-0.4,0.9-0.6,1.5-0.8c0.6-0.2,1.2-0.3,1.9-0.3 C680.5,460.4,681.4,460.6,681.9,461.2z M680.7,467.6c0.5-0.3,0.8-0.7,1-1.3v-1.4H679c-1.4,0-2.2,0.5-2.2,1.5 c0,0.5,0.2,0.9,0.6,1.2c0.4,0.3,0.9,0.4,1.6,0.4C679.7,468,680.2,467.9,680.7,467.6z"></path> <path class="st4" d="M688.2,460.8c0.5-0.3,1.2-0.4,2-0.4v1.1l-0.3,0c-0.9,0-1.6,0.3-2.1,0.8s-0.8,1.3-0.8,2.3v4.3h-1.1v-8.4h1.1 v1.6C687.3,461.5,687.7,461.1,688.2,460.8z"></path> <path class="st4" d="M699.9,460.4v7.4c0,1.4-0.3,2.5-1,3.2c-0.7,0.7-1.8,1-3.2,1c-0.8,0-1.5-0.1-2.2-0.3c-0.7-0.2-1.3-0.5-1.7-1 l0.6-0.9c0.4,0.4,0.9,0.6,1.5,0.8c0.6,0.2,1.2,0.3,1.8,0.3c1.1,0,1.9-0.2,2.4-0.7c0.5-0.5,0.8-1.3,0.8-2.3v-1.1 c-0.4,0.5-0.8,0.9-1.4,1.2s-1.2,0.4-1.9,0.4c-0.8,0-1.5-0.2-2.2-0.5s-1.2-0.8-1.5-1.5c-0.4-0.6-0.6-1.3-0.6-2.1s0.2-1.5,0.6-2.1 c0.4-0.6,0.9-1.1,1.5-1.4c0.6-0.3,1.4-0.5,2.2-0.5c0.7,0,1.4,0.1,1.9,0.4s1,0.7,1.4,1.2v-1.6H699.9z M697.3,467.1 c0.5-0.3,0.9-0.6,1.1-1.1c0.3-0.5,0.4-1,0.4-1.6s-0.1-1.1-0.4-1.6c-0.3-0.5-0.7-0.8-1.1-1.1c-0.5-0.3-1-0.4-1.7-0.4 c-0.6,0-1.2,0.1-1.6,0.4s-0.9,0.6-1.1,1.1c-0.3,0.5-0.4,1-0.4,1.6s0.1,1.1,0.4,1.6c0.3,0.5,0.7,0.8,1.1,1.1c0.5,0.3,1,0.4,1.6,0.4 C696.2,467.5,696.8,467.4,697.3,467.1z"></path> <path class="st4" d="M704.3,468.4c-0.7-0.4-1.2-0.9-1.5-1.5c-0.4-0.7-0.6-1.4-0.6-2.2s0.2-1.6,0.6-2.2c0.4-0.7,0.9-1.2,1.5-1.5 c0.7-0.4,1.4-0.5,2.2-0.5s1.5,0.2,2.2,0.5c0.7,0.4,1.2,0.9,1.5,1.5c0.4,0.7,0.6,1.4,0.6,2.2s-0.2,1.6-0.6,2.2 c-0.4,0.7-0.9,1.2-1.5,1.5c-0.7,0.4-1.4,0.6-2.2,0.6S705,468.7,704.3,468.4z M708.1,467.5c0.5-0.3,0.8-0.7,1.1-1.2 c0.3-0.5,0.4-1.1,0.4-1.7c0-0.6-0.1-1.2-0.4-1.7c-0.3-0.5-0.6-0.9-1.1-1.2c-0.5-0.3-1-0.4-1.6-0.4s-1.1,0.1-1.6,0.4 c-0.5,0.3-0.8,0.7-1.1,1.2c-0.3,0.5-0.4,1.1-0.4,1.7c0,0.6,0.1,1.2,0.4,1.7c0.3,0.5,0.6,0.9,1.1,1.2c0.5,0.3,1,0.4,1.6,0.4 S707.7,467.8,708.1,467.5z"></path> </g> <g> <rect x="128.1" y="244.5" class="st5" width="15" height="12"></rect> <rect x="143.1" y="244.5" class="st5" width="15" height="12"></rect> <rect x="135.6" y="232.5" class="st5" width="15" height="12"></rect> <polyline class="st5" points="177.6,221.9 143.1,197.9 108.5,221.9 "></polyline> <line class="st5" x1="113" y1="218.9" x2="113" y2="258"></line> <line class="st5" x1="173.1" y1="218.9" x2="173.1" y2="258"></line> <polyline class="st5" points="120.5,258 120.5,225 165.6,225 165.6,258 "></polyline> </g> <g> <circle class="st5" cx="395.3" cy="256" r="4.7"></circle> <circle class="st5" cx="376.6" cy="256" r="4.7"></circle> <polyline class="st5" points="417.1,259.1 404.7,259.1 404.7,223.3 "></polyline> <path class="st5" d="M372,248.2V246c0-2.2,1.8-4,4-4h6.9l4.7,4.7h17.1v9.3H400"></path> <path class="st5" d="M400,246.6c-1-7.1-3.3-14.2-9.3-20.2c-3.1,0-10.9,0-10.9,0V242"></path> <line class="st5" x1="390.7" y1="256" x2="381.3" y2="256"></line> <polyline class="st5" points="395.3,223.3 395.3,195.3 404.7,199.9 "></polyline> <polyline class="st5" points="426.5,229.5 435.8,234.2 435.8,195.3 426.5,199.9 "></polyline> <polyline class="st5" points="404.7,217.1 404.7,199.9 426.5,199.9 426.5,229.5 409.3,229.5 "></polyline> <polyline class="st5" points="373.5,229.5 364.2,229.5 364.2,199.9 395.3,199.9 "></polyline> <line class="st5" x1="387.5" y1="204.6" x2="387.5" y2="220.2"></line> <line class="st5" x1="379.8" y1="204.6" x2="379.8" y2="220.2"></line> <line class="st5" x1="372" y1="204.6" x2="372" y2="224.8"></line> <polyline class="st5" points="417.1,224.8 417.1,217.1 409.3,217.1 "></polyline> <polyline class="st5" points="414,217.1 414,207.7 409.3,207.7 "></polyline> </g> <g> <line class="st5" x1="631.6" y1="243.1" x2="626.9" y2="243.1"></line> <polyline class="st5" points="626.9,230.4 620.5,228.8 620.5,222.5 "></polyline> <polyline class="st5" points="649,244.6 649,236.7 634.8,236.7 634.8,244.6 "></polyline> <line class="st5" x1="652.2" y1="243.1" x2="656.9" y2="243.1"></line> <polyline class="st5" points="656.9,230.4 663.3,228.8 663.3,222.5 "></polyline> <path class="st5" d="M623.7,249.4v4.7c0,0.9,0.7,1.6,1.6,1.6h4.7c0.9,0,1.6-0.7,1.6-1.6v-4.7"></path> <path class="st5" d="M652.2,249.4v4.7c0,0.9,0.7,1.6,1.6,1.6h4.7c0.9,0,1.6-0.7,1.6-1.6v-4.7"></path> <path class="st5" d="M682.2,249.4v4.7c0,0.9,0.7,1.6,1.6,1.6h4.7c0.9,0,1.6-0.7,1.6-1.6v-4.7"></path> <rect x="631.6" y="222.5" class="st5" width="20.6" height="7.9"></rect> <path class="st5" d="M656.9,208.2V232l1.6,1.6c0.8,0.8,1.6,1.7,1.6,3.2c0,1.1,0,4.6,0,6.3h3.2v6.3h-42.7v-6.3h3.2 c0-1.7,0-5.2,0-6.3c0-1.4,0.8-2.4,1.6-3.2l1.6-1.6v-23.7"></path> <path class="st5" d="M656.9,217.7l-1.9-1.8c-1.2-1.3-2.6-1.4-4.4-1.4h-17.4c-1.8,0-3.2,0-4.4,1.4l-1.9,1.8"></path> <polyline class="st5" points="620.5,219.3 620.5,201.9 663.3,201.9 663.3,219.3 "></polyline> <polyline class="st5" points="663.3,201.9 664.8,201.9 693.3,220.9 693.3,249.4 666.4,249.4 "></polyline> </g> <g id="Layer_1-2_00000096041460939177763300000012935932777431667345_"> <g> <polygon class="st5" points="152.9,363.9 149.9,366.5 147.4,366.1 144.9,365.7 143,362.2 "></polygon> <path class="st5" d="M149.3,372.1c-0.1,0.7-0.5,1.3-1.1,1.6c-1.3,0.7-2.9,0.5-3.7-0.7c-0.4-0.5-0.6-1.2-0.5-1.9s0.5-1.3,1.1-1.6 c1.6-0.8,2-0.6,2.2-1.5l0.2-1"></path> <path class="st5" d="M127.8,376.3l34.7,6.1c1.4,0.2,2,0.7,1.8,1.8l-3.6,20.5c-0.2,1.2-0.8,1.4-2.3,1.1l-34.7-6.1 c-1.4-0.2-2-0.7-1.8-1.8l3.6-20.5C125.7,376.2,126.3,376,127.8,376.3z"></path> <line class="st5" x1="147.2" y1="374" x2="160.3" y2="381.9"></line> <line class="st5" x1="144.9" y1="373.6" x2="129.9" y2="376.5"></line> <line class="st5" x1="127.3" y1="396.9" x2="130.2" y2="380.1"></line> <line class="st5" x1="132" y1="397.8" x2="135" y2="381"></line> <line class="st5" x1="136.8" y1="398.6" x2="139.8" y2="381.8"></line> <line class="st5" x1="141.5" y1="399.5" x2="144.5" y2="382.7"></line> <line class="st5" x1="146.3" y1="400.3" x2="149.3" y2="383.5"></line> <line class="st5" x1="151" y1="401.1" x2="154" y2="384.3"></line> <line class="st5" x1="155.8" y1="402" x2="158.7" y2="385.2"></line> <path class="st5" d="M126.9,415.1h35.2c1.4,0,2,0.3,2,1.5v20.8c0,1.2-0.6,1.5-2,1.5h-35.2c-1.4,0-2-0.3-2-1.5v-20.8 C124.9,415.4,125.3,415.1,126.9,415.1z"></path> <line class="st5" x1="130" y1="435.5" x2="130" y2="418.5"></line> <line class="st5" x1="134.8" y1="435.5" x2="134.8" y2="418.5"></line> <line class="st5" x1="139.6" y1="435.5" x2="139.6" y2="418.5"></line> <line class="st5" x1="144.4" y1="435.5" x2="144.4" y2="418.5"></line> <line class="st5" x1="149.3" y1="435.5" x2="149.3" y2="418.5"></line> <line class="st5" x1="154.1" y1="435.5" x2="154.1" y2="418.5"></line> <line class="st5" x1="158.9" y1="435.5" x2="158.9" y2="418.5"></line> </g> </g> <g> <circle class="st5" cx="385.3" cy="433.4" r="5.5"></circle> <circle class="st5" cx="363.3" cy="433.4" r="5.5"></circle> <line class="st5" x1="396.3" y1="437.1" x2="396.3" y2="394.9"></line> <line class="st5" x1="412.8" y1="413.3" x2="396.3" y2="413.3"></line> <path class="st5" d="M357.8,424.3v-2.6c0-2.6,2.1-4.8,4.8-4.8h8.1l5.5,5.5h20.2v11h-5.5"></path> <path class="st5" d="M390.8,422.4c-1.2-8.3-3.9-16.7-11-23.8c-3.7,0-12.8,0-12.8,0v18.3"></path> <line class="st5" x1="379.8" y1="433.4" x2="368.8" y2="433.4"></line> <polyline class="st5" points="403.7,393.1 403.7,380.2 434.8,380.2 434.8,437.1 403.7,437.1 403.7,420.6 "></polyline> <line class="st5" x1="442.2" y1="437.1" x2="434.8" y2="437.1"></line> <line class="st5" x1="434.8" y1="380.2" x2="442.2" y2="380.2"></line> <polyline class="st5" points="416.5,431.6 416.5,418.8 429.3,418.8 "></polyline> <polyline class="st5" points="422,418.8 422,404.1 429.3,404.1 "></polyline> <polyline class="st5" points="409.2,413.3 409.2,400.4 396.3,400.4 "></polyline> </g> <g> <polyline class="st5" points="645.4,411.3 645.4,391.3 683.8,391.3 683.8,411.3 "></polyline> <line class="st5" x1="653.1" y1="395.9" x2="653.1" y2="411.3"></line> <line class="st5" x1="660.8" y1="395.9" x2="660.8" y2="411.3"></line> <line class="st5" x1="668.5" y1="395.9" x2="668.5" y2="411.3"></line> <line class="st5" x1="676.1" y1="395.9" x2="676.1" y2="411.3"></line> <line class="st5" x1="660.8" y1="420.5" x2="660.8" y2="434.3"></line> <line class="st5" x1="668.5" y1="420.5" x2="668.5" y2="434.3"></line> <line class="st5" x1="676.1" y1="420.5" x2="676.1" y2="434.3"></line> <line class="st5" x1="683.8" y1="420.5" x2="683.8" y2="434.3"></line> <rect x="653.1" y="415.9" class="st5" width="38.4" height="23.1"></rect> <polyline class="st5" points="653.1,438.9 637.7,438.9 637.7,415.9 653.1,415.9 "></polyline> <polyline class="st5" points="633.1,438.9 622.3,438.9 622.3,415.9 633.1,415.9 "></polyline> <polyline class="st5" points="630,411.3 630,391.3 645.4,391.3 "></polyline> </g> </g> </svg> 